<?xml version="1.0" encoding="UTF-8"?>
<!-- Generated by Pixelmator Pro 3.4.3 -->
<svg width="1255" height="1085" viewBox="0 0 1255 1085" xmlns="http://www.w3.org/2000/svg">
    <filter id="filter1" x="0" y="0" width="1255" height="1085" filterUnits="userSpaceOnUse" primitiveUnits="userSpaceOnUse" color-interpolation-filters="sRGB">
        <feGaussianBlur stdDeviation="10"/>
        <feOffset dx="7.677206" dy="4.696861" result="offsetblur"/>
        <feFlood flood-color="#000000" flood-opacity="0.494065"/>
        <feComposite in2="offsetblur" operator="in"/>
        <feMerge>
            <feMergeNode/>
            <feMergeNode in="SourceGraphic"/>
        </feMerge>
    </filter>
    <path id="Shape" fill="#8f0754" fill-rule="evenodd" stroke="#000000" stroke-width="6" stroke-linecap="round" stroke-linejoin="round" filter="url(#filter1)" d="M 1124.421875 342.984375 L 1122.984375 345.8125 L 1121.625 348.578125 L 1121.640625 348.578125 L 1120.34375 351.328125 L 1119.1875 353.859375 L 1118.203125 356.125 L 1117.828125 357.046875 L 1117.171875 358.71875 L 1116.109375 361.4375 L 1115.65625 362.875 L 1115.46875 363.609375 L 1115.421875 363.875 L 1115.40625 364.09375 L 1115.421875 364.328125 L 1115.4375 364.375 L 1115.515625 364.515625 L 1115.609375 364.640625 L 1116.0625 365.09375 L 1116.59375 365.5625 L 1117.671875 366.390625 L 1118.6875 367.15625 L 1119.3125 367.640625 L 1120.65625 368.703125 L 1122.84375 370.53125 L 1125.84375 373.203125 L 1127.953125 375.1875 L 1129.21875 376.453125 L 1129.796875 377.046875 L 1130.9375 378.25 L 1133.375 381.015625 L 1135.765625 383.90625 L 1137.890625 386.609375 L 1138.71875 387.765625 L 1139.515625 388.921875 L 1141.25 391.65625 L 1142.984375 394.578125 L 1144.546875 397.40625 L 1145.203125 398.65625 L 1145.828125 399.921875 L 1147.203125 403.015625 L 1148.609375 406.40625 L 1149.875 409.734375 L 1150.40625 411.25 L 1150.65625 412.015625 L 1151.171875 413.703125 L 1151.96875 416.515625 L 1152.96875 420.53125 L 1153.609375 423.5 L 1153.984375 425.34375 L 1154.125 426.1875 L 1154.28125 427.078125 L 1154.546875 429 L 1154.890625 432.109375 L 1155.265625 436.5 L 1155.4375 439.65625 L 1155.484375 441.578125 L 1155.5 442.5 L 1155.484375 443.40625 L 1155.4375 445.328125 L 1155.265625 448.484375 L 1154.890625 452.875 L 1154.546875 455.984375 L 1154.28125 457.90625 L 1154.125 458.78125 L 1153.984375 459.640625 L 1153.609375 461.484375 L 1152.96875 464.453125 L 1151.96875 468.46875 L 1151.171875 471.28125 L 1150.65625 472.96875 L 1150.40625 473.734375 L 1149.875 475.25 L 1148.609375 478.578125 L 1147.203125 481.96875 L 1145.828125 485.046875 L 1145.203125 486.34375 L 1144.546875 487.609375 L 1142.984375 490.40625 L 1141.25 493.328125 L 1139.515625 496.0625 L 1138.71875 497.234375 L 1137.890625 498.375 L 1135.875 500.984375 L 1133.59375 503.734375 L 1131.34375 506.3125 L 1129.21875 508.5 L 1126.59375 511 L 1123.703125 513.59375 L 1120.84375 516.015625 L 1119.546875 517.03125 L 1118.859375 517.546875 L 1117.34375 518.625 L 1115.59375 519.78125 L 1113.703125 520.96875 L 1111.71875 522.140625 L 1109.703125 523.28125 L 1107.703125 524.359375 L 1105.765625 525.359375 L 1104.828125 525.78125 L 1103.921875 526.203125 L 1101.984375 527.0625 L 1098.90625 528.34375 L 1095.78125 529.53125 L 1093.796875 530.234375 L 1091.9375 530.875 L 1090.25 531.390625 L 1089.515625 531.578125 L 1087.53125 532.109375 L 1090.3125 535.5625 L 1096.671875 543.5 L 1104.734375 553.625 L 1106.625 556.015625 L 1110.71875 561.375 L 1114.734375 566.84375 L 1117.4375 570.609375 L 1118.984375 572.84375 L 1119.640625 573.84375 L 1120.28125 574.828125 L 1121.71875 577.09375 L 1123.265625 579.640625 L 1124.859375 582.359375 L 1127.296875 586.59375 L 1129.578125 590.8125 L 1130.96875 593.453125 L 1131.625 594.71875 L 1132.265625 596.046875 L 1133.546875 598.734375 L 1134.75 601.46875 L 1135.90625 604.171875 L 1136.953125 606.828125 L 1137.859375 609.359375 L 1138.65625 611.71875 L 1139.296875 613.890625 L 1139.53125 614.859375 L 1139.828125 616.109375 L 1140.3125 618.625 L 1140.71875 621.28125 L 1141 624.171875 L 1141.21875 627.453125 L 1141.359375 631.25 L 1141.453125 635.71875 L 1141.484375 641.015625 L 1141.5 644.0625 L 1141.484375 647.3125 L 1141.453125 652.8125 L 1141.375 657.375 L 1141.21875 661.15625 L 1140.96875 664.40625 L 1140.625 667.328125 L 1140.15625 670.046875 L 1139.5625 672.796875 L 1139.203125 674.296875 L 1138.671875 676.328125 L 1137.25 681.484375 L 1135.515625 687.359375 L 1133.6875 693.234375 L 1132.796875 695.953125 L 1132.359375 697.265625 L 1131.390625 700.0625 L 1129.8125 704.390625 L 1127.640625 710.03125 L 1126.109375 713.75 L 1125.1875 715.84375 L 1124.78125 716.75 L 1123.71875 719 L 1119.453125 728.53125 L 1113.203125 742.671875 L 1105.71875 759.65625 L 1101.75 768.71875 L 1097.8125 777.734375 L 1090.5625 794.40625 L 1084.71875 808 L 1081.78125 814.953125 L 1080.5625 817.875 L 1080.296875 818.578125 L 1079.15625 821.53125 L 1075.78125 830.234375 L 1074.078125 834.59375 L 1072.375 838.859375 L 1069.34375 846.703125 L 1068.453125 849.078125 L 1068.03125 850.140625 L 1066.90625 852.703125 L 1065.53125 855.515625 L 1064.078125 858.25 L 1063.390625 859.484375 L 1062.71875 860.65625 L 1061.359375 863.234375 L 1060.078125 865.859375 L 1060.0625 865.859375 L 1059.078125 868.09375 L 1058.421875 869.734375 L 1057.40625 872.109375 L 1054.890625 877.75 L 1049.875 888.765625 L 1043.59375 902.359375 L 1036.71875 917.15625 L 1030.359375 930.984375 L 1025.21875 942.359375 L 1022.59375 948.34375 L 1021.5 950.921875 L 1020.75 952.921875 L 1019.34375 956.546875 L 1017.640625 960.78125 L 1015.859375 965.125 L 1015.015625 967.15625 L 1014.578125 968.1875 L 1013.59375 970.71875 L 1011.796875 975.5 L 1009.078125 983.09375 L 1006.3125 991.1875 L 1005.046875 995.078125 L 1004.375 997.078125 L 1002.84375 1001.53125 L 1001.078125 1006.390625 L 999.15625 1011.515625 L 997.15625 1016.734375 L 995.09375 1021.90625 L 993.0625 1026.859375 L 991.109375 1031.4375 L 990.203125 1033.53125 L 988.40625 1037.546875 L 985 1044.875 L 982.796875 1049.421875 L 981.546875 1051.890625 L 980.515625 1053.828125 L 979.890625 1054.875 L 979.53125 1055.390625 L 979.3125 1055.6875 L 978.96875 1056.046875 L 978.453125 1056.765625 L 978.015625 1057.546875 L 977.875 1057.84375 L 977.796875 1058.109375 L 977.78125 1058.15625 L 977.640625 1058.734375 L 977.28125 1059.546875 L 976.859375 1060.28125 L 976.3125 1061.015625 L 975.703125 1061.671875 L 975.09375 1062.234375 L 974.40625 1062.8125 L 973.703125 1063.28125 L 973.296875 1063.53125 L 972.71875 1063.84375 L 971.75 1064.328125 L 970.625 1064.71875 L 969.40625 1064.921875 L 968.0625 1064.828125 L 966.875 1064.5 L 965.765625 1064.046875 L 964.578125 1063.484375 L 963.875 1063.125 L 962.875 1062.59375 L 960.0625 1060.90625 L 956.515625 1058.6875 L 952.6875 1056.171875 L 950.765625 1054.890625 L 946.71875 1052.125 L 937.484375 1045.6875 L 933.765625 1043.0625 L 932.046875 1041.84375 L 928.328125 1039.234375 L 924.609375 1036.6875 L 921.359375 1034.5 L 920.109375 1033.703125 L 918.734375 1032.796875 L 914.484375 1029.984375 L 906.109375 1024.3125 L 900.0625 1020.203125 L 893.875 1015.9375 L 881.46875 1007.359375 L 877.265625 1004.375 L 875.46875 1003.109375 L 871.96875 1000.546875 L 868.859375 998.171875 L 866.46875 996.265625 L 865.765625 995.609375 L 865.75 995.625 L 865.1875 995.125 L 864.984375 994.953125 L 864.0625 994.90625 L 862.953125 994.546875 L 861.875 994.09375 L 860.625 993.484375 L 859.21875 992.734375 L 856.890625 991.40625 L 855.171875 990.34375 L 854.265625 989.78125 L 852.0625 988.375 L 848.234375 985.796875 L 842.4375 981.75 L 836.484375 977.453125 L 833.703125 975.390625 L 827.953125 971.109375 L 815.625 961.953125 L 811.03125 958.578125 L 808.890625 956.984375 L 803.796875 953.046875 L 798.28125 948.65625 L 793.03125 944.328125 L 790.734375 942.390625 L 789.609375 941.421875 L 787.140625 939.234375 L 783.078125 935.578125 L 777.40625 930.296875 L 772.09375 925.1875 L 769.828125 922.953125 L 767.609375 920.703125 L 762.765625 915.6875 L 757.9375 910.5625 L 753.6875 905.921875 L 752.03125 904.046875 L 751.234375 903.125 L 749.5 901.09375 L 746.734375 897.703125 L 742.96875 892.890625 L 740.375 889.421875 L 738.8125 887.265625 L 736.75 884.265625 L 733.546875 879.453125 L 730.171875 874.234375 L 727.046875 869.234375 L 725.703125 867.046875 L 724.40625 864.84375 L 721.671875 860 L 719 855.0625 L 717.265625 851.671875 L 716.296875 849.6875 L 715.875 848.796875 L 715.46875 847.890625 L 714.640625 845.984375 L 713.34375 842.828125 L 711.65625 838.40625 L 710.53125 835.234375 L 709.890625 833.3125 L 709.328125 831.5 L 708.765625 829.375 L 707.84375 825.734375 L 706.625 820.265625 L 705.78125 816.09375 L 705.28125 813.421875 L 705.0625 812.15625 L 704.71875 810.171875 L 704.171875 806.375 L 703.859375 803.421875 L 703.671875 801.3125 L 703.4375 797.875 L 703.234375 792.4375 L 703.09375 785.625 L 703.015625 777.078125 L 703 766.375 L 703 759.96875 L 702.984375 747.8125 L 702.90625 735.09375 L 702.796875 729.0625 L 702.640625 724.765625 L 702.5 722.71875 L 702.484375 722.71875 L 702.34375 721.546875 L 702.234375 720.875 L 702.140625 720.5625 L 701.765625 720.3125 L 701.734375 720.296875 L 701.4375 720.15625 L 701.109375 720.0625 L 700.90625 720 L 700.75 720 L 700.40625 719.96875 L 699.796875 719.921875 L 698.953125 719.71875 L 698.015625 719.296875 L 697.453125 718.78125 L 694.828125 719.484375 L 687.40625 721.390625 L 681.25 722.9375 L 679.625 723.34375 L 676.03125 724.171875 L 672.125 725.03125 L 668.015625 725.875 L 663.84375 726.703125 L 659.703125 727.46875 L 655.75 728.15625 L 652.09375 728.765625 L 650.4375 729.015625 L 648.484375 729.28125 L 644.671875 729.78125 L 640.828125 730.203125 L 637 730.5625 L 633.21875 730.859375 L 629.484375 731.078125 L 625.828125 731.234375 L 622.25 731.3125 L 620.515625 731.328125 L 618.9375 731.328125 L 615.625 731.265625 L 612.125 731.140625 L 608.53125 730.96875 L 604.9375 730.734375 L 601.4375 730.453125 L 598.078125 730.140625 L 594.984375 729.796875 L 593.59375 729.59375 L 590.875 729.21875 L 584.84375 728.28125 L 578.71875 727.234375 L 573.21875 726.234375 L 570.984375 725.78125 L 568.796875 725.328125 L 563.65625 724.15625 L 558.171875 722.8125 L 553.015625 721.484375 L 550.796875 720.875 L 548.828125 720.328125 L 546.015625 719.640625 L 546.015625 719.625 L 544.515625 719.296875 L 543.15625 719.046875 L 542.078125 718.875 L 541.703125 719.109375 L 540.53125 719.640625 L 539.265625 720.0625 L 538.625 720.234375 L 538.421875 720.28125 L 538.359375 720.3125 L 538.0625 720.453125 L 537.875 720.59375 L 537.71875 720.734375 L 537.625 720.84375 L 537.578125 720.921875 L 537.546875 720.96875 L 537.53125 721.1875 L 537.4375 722.78125 L 537.28125 728.109375 L 537.109375 739.328125 L 537.015625 753.671875 L 537 761.65625 L 537 767.90625 L 536.96875 778.40625 L 536.890625 786.8125 L 536.75 793.515625 L 536.546875 798.890625 L 536.3125 802.3125 L 536.125 804.40625 L 535.796875 807.328125 L 535.265625 811.078125 L 534.9375 813.046875 L 534.71875 814.328125 L 534.171875 817.109375 L 533.53125 820.0625 L 532.8125 823.140625 L 532.046875 826.203125 L 531.25 829.234375 L 530.4375 832.078125 L 529.65625 834.671875 L 528.875 837 L 527.96875 839.515625 L 526.921875 842.1875 L 525.796875 844.953125 L 524.625 847.71875 L 523.421875 850.4375 L 522.234375 853 L 521.09375 855.328125 L 520.546875 856.390625 L 519.96875 857.453125 L 518.609375 859.90625 L 516.96875 862.734375 L 515.140625 865.78125 L 512.171875 870.625 L 509.078125 875.53125 L 507.03125 878.6875 L 506.03125 880.171875 L 505.046875 881.640625 L 502.9375 884.703125 L 500.71875 887.859375 L 498.46875 890.984375 L 496.25 894.015625 L 494.140625 896.828125 L 492.171875 899.359375 L 490.421875 901.53125 L 489.65625 902.453125 L 488.875 903.34375 L 487.03125 905.421875 L 483.65625 909.125 L 478.359375 914.734375 L 472.796875 920.46875 L 470.140625 923.15625 L 467.4375 925.8125 L 461.546875 931.5 L 455.65625 936.984375 L 451.703125 940.5625 L 449.421875 942.546875 L 448.4375 943.40625 L 447.390625 944.25 L 444.8125 946.34375 L 439.953125 950.171875 L 432.046875 956.296875 L 423.5 962.8125 L 419.296875 965.96875 L 415.0625 969.109375 L 406.171875 975.578125 L 397.734375 981.625 L 392.34375 985.40625 L 389.375 987.4375 L 388.15625 988.25 L 387 989 L 384.8125 990.40625 L 382.765625 991.671875 L 380.90625 992.75 L 379.296875 993.65625 L 377.875 994.359375 L 376.65625 994.859375 L 375.390625 995.140625 L 375.15625 995.09375 L 375.015625 995.234375 L 374.265625 995.90625 L 372.75 997.171875 L 370.03125 999.21875 L 366.859375 1001.46875 L 365.203125 1002.609375 L 363.5 1003.765625 L 359.90625 1006.265625 L 356.390625 1008.75 L 353.390625 1010.921875 L 352.296875 1011.734375 L 349.84375 1013.5625 L 342.859375 1018.5625 L 339.453125 1020.96875 L 337.765625 1022.125 L 333.953125 1024.703125 L 329.953125 1027.3125 L 326.328125 1029.640625 L 324.8125 1030.5625 L 323.34375 1031.484375 L 323.34375 1031.46875 L 319.578125 1033.90625 L 315.375 1036.734375 L 311.125 1039.671875 L 309.25 1041.015625 L 307.234375 1042.453125 L 302.1875 1046 L 296.484375 1049.9375 L 290.859375 1053.796875 L 288.3125 1055.546875 L 287.0625 1056.375 L 284.609375 1057.984375 L 282.234375 1059.484375 L 280 1060.84375 L 278 1062.03125 L 276.203125 1063.03125 L 274.6875 1063.78125 L 273.703125 1064.203125 L 273.046875 1064.421875 L 272.703125 1064.5 L 272.21875 1064.578125 L 271.421875 1064.640625 L 270.59375 1064.65625 L 269.75 1064.59375 L 269 1064.5 L 268.1875 1064.328125 L 267.421875 1064.09375 L 266.625 1063.78125 L 266.296875 1063.578125 L 265.9375 1063.359375 L 265.25 1062.828125 L 264.703125 1062.265625 L 264.25 1061.734375 L 263.78125 1061.109375 L 263.359375 1060.453125 L 263 1059.765625 L 262.703125 1059.109375 L 262.578125 1058.765625 L 262.484375 1058.453125 L 262.09375 1057.578125 L 261.78125 1057.015625 L 261.5 1056.59375 L 261.375 1056.46875 L 261.046875 1056.109375 L 260.40625 1055.125 L 259.34375 1053.21875 L 257.453125 1049.546875 L 255.21875 1045.03125 L 254.03125 1042.546875 L 252.8125 1039.9375 L 250.078125 1033.9375 L 247.3125 1027.671875 L 244.828125 1021.890625 L 243.84375 1019.5 L 243.359375 1018.296875 L 242.25 1015.453125 L 240.40625 1010.4375 L 237.671875 1002.765625 L 235.015625 994.9375 L 233.8125 991.28125 L 233.234375 989.484375 L 233.25 989.484375 L 231.96875 985.65625 L 229.90625 979.671875 L 229.890625 979.671875 L 226.984375 971.640625 L 227 971.640625 L 224.96875 966.3125 L 223.75 963.265625 L 223.21875 962 L 218.578125 950.96875 L 215.28125 943.15625 L 214.515625 941.375 L 211.21875 934.078125 L 206.3125 923.34375 L 200.40625 910.53125 L 197.25 903.75 L 194.125 897 L 188.453125 884.703125 L 183.96875 874.921875 L 181.78125 870.046875 L 180.921875 868.046875 L 180.734375 867.546875 L 180.53125 867.03125 L 179.59375 864.953125 L 178.390625 862.546875 L 176.921875 859.765625 L 176.203125 858.4375 L 175.78125 857.671875 L 174.890625 855.90625 L 173.90625 853.84375 L 172.875 851.5625 L 171.28125 847.90625 L 169.765625 844.15625 L 168.796875 841.703125 L 168.375 840.546875 L 166.640625 835.828125 L 164.046875 828.96875 L 162.640625 825.359375 L 162.140625 824.15625 L 160.140625 819.421875 L 148.359375 791.984375 L 140.453125 773.6875 L 136.421875 764.390625 L 128.734375 746.734375 L 122.15625 731.796875 L 117.5 721.375 L 116.28125 718.75 L 115.765625 717.671875 L 114.65625 715.140625 L 113.484375 712.34375 L 112.265625 709.34375 L 111.046875 706.21875 L 109.859375 703.078125 L 108.734375 700.015625 L 107.71875 697.09375 L 107.265625 695.71875 L 106.40625 693 L 104.5625 687.078125 L 102.828125 681.1875 L 101.375 676.0625 L 100.84375 674.0625 L 100.46875 672.59375 L 99.859375 669.875 L 99.375 667.171875 L 99.015625 664.34375 L 98.765625 661.140625 L 98.609375 657.4375 L 98.53125 652.953125 L 98.5 647.515625 L 98.5 641.078125 L 98.53125 635.65625 L 98.609375 631.171875 L 98.765625 627.46875 L 99.015625 624.265625 L 99.375 621.40625 L 99.859375 618.71875 L 100.453125 616 L 100.828125 614.546875 L 101.078125 613.5625 L 101.75 611.328125 L 102.5625 608.921875 L 103.46875 606.390625 L 104.453125 603.765625 L 105.515625 601.15625 L 106.609375 598.625 L 107.703125 596.25 L 108.234375 595.171875 L 108.78125 594.078125 L 110.046875 591.65625 L 111.484375 589.015625 L 113.03125 586.25 L 114.65625 583.4375 L 116.3125 580.640625 L 117.953125 577.96875 L 119.515625 575.484375 L 120.25 574.359375 L 121 573.21875 L 122.671875 570.765625 L 125.4375 566.8125 L 129.359375 561.421875 L 132.203125 557.6875 L 133.9375 555.453125 L 134.734375 554.453125 L 138.09375 550.296875 L 145.71875 540.765625 L 148.75 536.921875 L 152.578125 532.078125 L 151.4375 531.75 L 148.078125 530.71875 L 145.03125 529.6875 L 142.203125 528.6875 L 139.640625 527.671875 L 137.296875 526.6875 L 135.15625 525.71875 L 134.1875 525.25 L 133.1875 524.75 L 131.0625 523.625 L 128.84375 522.34375 L 126.578125 520.984375 L 124.34375 519.53125 L 122.21875 518.09375 L 120.203125 516.65625 L 118.40625 515.265625 L 117.59375 514.625 L 116.8125 513.9375 L 115.1875 512.5 L 113.5 510.90625 L 111.765625 509.21875 L 110.0625 507.515625 L 108.4375 505.796875 L 106.90625 504.140625 L 105.546875 502.59375 L 104.953125 501.859375 L 104.34375 501.09375 L 103.078125 499.40625 L 101.734375 497.484375 L 100.359375 495.421875 L 99.03125 493.265625 L 97.703125 491.09375 L 96.453125 488.90625 L 95.328125 486.828125 L 94.828125 485.828125 L 94.34375 484.828125 L 93.359375 482.6875 L 92.359375 480.40625 L 91.40625 478.078125 L 90.5 475.734375 L 89.671875 473.421875 L 88.9375 471.234375 L 88.34375 469.234375 L 88.109375 468.34375 L 87.65625 466.53125 L 86.765625 462.28125 L 85.921875 457.703125 L 85.21875 453.328125 L 84.953125 451.390625 L 84.828125 450.203125 L 84.609375 447.921875 L 84.46875 445.6875 L 84.390625 443.484375 L 84.390625 441.265625 L 84.46875 439.078125 L 84.625 436.84375 L 84.84375 434.59375 L 84.96875 433.421875 L 85.234375 431.484375 L 85.9375 427.125 L 86.78125 422.59375 L 87.671875 418.375 L 88.109375 416.578125 L 88.359375 415.671875 L 88.953125 413.703125 L 89.6875 411.515625 L 90.515625 409.21875 L 91.421875 406.84375 L 92.390625 404.484375 L 93.390625 402.1875 L 94.359375 400.03125 L 94.859375 399.015625 L 95.375 397.984375 L 96.53125 395.859375 L 97.8125 393.640625 L 99.1875 391.375 L 100.625 389.15625 L 102.0625 387.015625 L 103.46875 385.046875 L 104.84375 383.265625 L 105.484375 382.484375 L 106.125 381.71875 L 107.53125 380.140625 L 109.84375 377.65625 L 112.296875 375.171875 L 113.90625 373.5625 L 115.5 372.0625 L 116.984375 370.71875 L 117.6875 370.140625 L 118.9375 369.0625 L 121.4375 367.015625 L 123.609375 365.3125 L 125.078125 364.234375 L 124.640625 362.890625 L 123.953125 361.0625 L 123.96875 361.0625 L 122.984375 358.609375 L 122.96875 358.609375 L 122.34375 357.078125 L 121.921875 356.046875 L 120.6875 353.359375 L 120.671875 353.359375 L 118.921875 349.765625 L 116.828125 345.59375 L 114.453125 340.9375 L 111.859375 335.96875 L 109.109375 330.8125 L 106.28125 325.578125 L 104.875 323.03125 L 102.546875 318.78125 L 98.625 311.5625 L 96.140625 306.84375 L 94.625 303.859375 L 93.203125 300.953125 L 91.84375 298.0625 L 90.5 295.09375 L 89.140625 291.984375 L 87.0625 287 L 83.96875 279.203125 L 80.296875 269.625 L 78.109375 263.875 L 75.3125 256.515625 L 68.796875 239.140625 L 61.921875 220.625 L 55.515625 203.1875 L 52.8125 195.75 L 50.15625 188.4375 L 44.46875 172.421875 L 38.890625 156.4375 L 34.0625 142.421875 L 32.234375 136.953125 L 31.375 134.359375 L 29.65625 128.921875 L 27.921875 123.34375 L 26.25 117.71875 L 24.65625 112.25 L 23.234375 107.09375 L 21.984375 102.421875 L 20.96875 98.375 L 20.578125 96.65625 L 19.8125 93.203125 L 18.046875 84.71875 L 16.171875 75.328125 L 14.390625 66.125 L 13.640625 62.046875 L 12.921875 58.015625 L 11.515625 49.671875 L 10.265625 41.796875 L 9.546875 36.828125 L 9.1875 34.09375 L 9.0625 33.015625 L 8.890625 31.4375 L 8.640625 28.78125 L 8.46875 26.5625 L 8.421875 24.671875 L 8.5 23 L 8.71875 21.5 L 9.078125 20.09375 L 9.578125 18.796875 L 9.875 18.140625 L 10.15625 17.5625 L 10.78125 16.5 L 11.484375 15.515625 L 12.3125 14.625 L 13.234375 13.828125 L 14.28125 13.171875 L 15.375 12.625 L 16.546875 12.171875 L 17.1875 11.984375 L 17.859375 11.78125 L 19.203125 11.515625 L 20.640625 11.3125 L 22.203125 11.21875 L 23.921875 11.21875 L 25.796875 11.3125 L 27.890625 11.5 L 30.234375 11.75 L 31.546875 11.90625 L 33.640625 12.1875 L 38.84375 12.921875 L 44.65625 13.78125 L 50.390625 14.6875 L 53 15.125 L 55.671875 15.59375 L 62.15625 16.859375 L 69.265625 18.34375 L 76.171875 19.90625 L 79.203125 20.640625 L 82.234375 21.390625 L 82.234375 21.40625 L 89.3125 23 L 89.3125 22.984375 L 96.921875 24.609375 L 104 26.03125 L 107.046875 26.59375 L 108.609375 26.890625 L 112.0625 27.59375 L 115.78125 28.4375 L 119.6875 29.390625 L 123.65625 30.40625 L 127.640625 31.5 L 131.515625 32.625 L 135.203125 33.765625 L 136.9375 34.328125 L 140.328125 35.453125 L 148.40625 38.1875 L 157.125 41.21875 L 165.421875 44.125 L 169.015625 45.40625 L 172.453125 46.671875 L 179.140625 49.140625 L 185.03125 51.40625 L 189.40625 53.15625 L 190.71875 53.71875 L 191.921875 54.265625 L 196.265625 56.09375 L 202.25 58.546875 L 209.109375 61.328125 L 212.609375 62.71875 L 214.4375 63.453125 L 218.578125 65.171875 L 225.5625 68.140625 L 235.640625 72.5625 L 243.0625 75.890625 L 247.65625 78.03125 L 249.78125 79.015625 L 254.09375 81.09375 L 263.953125 85.859375 L 274.15625 90.890625 L 283.5 95.578125 L 287.375 97.53125 L 291.09375 99.46875 L 299.140625 103.703125 L 307.046875 107.9375 L 313.859375 111.671875 L 316.484375 113.140625 L 318.96875 114.578125 L 324.5 117.875 L 330.109375 121.3125 L 335.125 124.5 L 337.171875 125.84375 L 338.171875 126.515625 L 340.421875 128.109375 L 342.9375 129.96875 L 345.65625 132 L 348.46875 134.1875 L 351.296875 136.421875 L 354.078125 138.640625 L 356.703125 140.828125 L 357.953125 141.875 L 360.484375 144.0625 L 366.484375 149.390625 L 372.921875 155.28125 L 379.046875 161.03125 L 381.6875 163.5625 L 383.015625 164.84375 L 385.890625 167.71875 L 390.65625 172.59375 L 397.359375 179.609375 L 402.171875 184.78125 L 405.109375 188.015625 L 406.4375 189.515625 L 409.140625 192.546875 L 415.40625 199.78125 L 422 207.484375 L 428.140625 214.75 L 430.703125 217.875 L 431.578125 218.953125 L 433.5 221.40625 L 435.6875 224.28125 L 438.140625 227.609375 L 440.90625 231.453125 L 444.03125 235.84375 L 449.359375 243.5 L 458 256.125 L 468.546875 271.71875 L 481.234375 290.65625 L 496.3125 313.28125 L 504.921875 326.234375 L 516.109375 343.09375 L 534.03125 370.03125 L 544.203125 385.265625 L 549.796875 393.5625 L 554.453125 400.390625 L 558.28125 405.9375 L 561.328125 410.21875 L 563.75 413.484375 L 565.15625 415.28125 L 565.171875 415.28125 L 566.015625 416.296875 L 566.59375 416.953125 L 567.140625 417.5 L 567.703125 418.015625 L 567.796875 418.09375 L 567.90625 418.15625 L 567.984375 418.15625 L 568.078125 418.140625 L 568.78125 418.015625 L 569.078125 417.953125 L 569.15625 417.640625 L 569.265625 416.921875 L 569.34375 416.078125 L 569.328125 416.078125 L 569.40625 414.75 L 569.46875 412.390625 L 569.5 408.15625 L 569.5 405.46875 L 569.484375 401.921875 L 569.34375 391.0625 L 569.09375 377.125 L 568.78125 361.875 L 568.59375 354.296875 L 568.484375 349.625 L 568.3125 341 L 568.203125 333.203125 L 568.171875 326.171875 L 568.203125 319.859375 L 568.296875 314.171875 L 568.453125 309.109375 L 568.671875 304.578125 L 568.828125 302.484375 L 569 300.328125 L 569.359375 296.234375 L 569.796875 292.3125 L 570.3125 288.515625 L 570.9375 284.671875 L 571.671875 280.75 L 572.53125 276.609375 L 573.53125 272.15625 L 574.109375 269.796875 L 574.53125 268.015625 L 575.40625 264.234375 L 575.390625 264.234375 L 576.734375 258.140625 L 578.359375 250.046875 L 579.375 244.5625 L 579.921875 241.421875 L 580.375 238.609375 L 580.953125 235.34375 L 581.703125 231.65625 L 582.5625 227.703125 L 583.5 223.59375 L 584.5 219.4375 L 585.53125 215.34375 L 586.578125 211.46875 L 587.109375 209.671875 L 587.59375 207.890625 L 588.671875 203.875 L 589.765625 199.5 L 590.859375 194.890625 L 591.953125 190.171875 L 591.9375 190.171875 L 592.953125 185.46875 L 593.890625 180.96875 L 594.6875 176.828125 L 595 174.984375 L 595.671875 171.171875 L 597.1875 163.140625 L 598.71875 155.5 L 599.78125 150.59375 L 600.40625 147.875 L 600.6875 146.78125 L 601.234375 144.625 L 601.21875 144.625 L 602.421875 139.59375 L 603.609375 134.375 L 604.65625 129.4375 L 605.078125 127.4375 L 605.0625 127.4375 L 605.921875 122.953125 L 608.09375 111.28125 L 609.03125 105.984375 L 609.265625 104.65625 L 609.796875 102 L 610.359375 99.484375 L 610.9375 97.09375 L 611.53125 94.890625 L 612.125 92.90625 L 612.75 91.140625 L 613.34375 89.75 L 613.65625 89.09375 L 613.96875 88.546875 L 614.515625 87.671875 L 615.109375 86.8125 L 615.734375 86.015625 L 616.375 85.3125 L 617.0625 84.65625 L 617.859375 84.09375 L 619.046875 83.5 L 620.453125 83.5 L 621.484375 83.78125 L 622.28125 84.1875 L 622.9375 84.609375 L 623.5625 85.109375 L 624.15625 85.640625 L 624.734375 86.21875 L 625.296875 86.875 L 625.859375 87.65625 L 626.40625 88.640625 L 626.9375 89.75 L 627.4375 90.984375 L 627.90625 92.296875 L 628.375 93.6875 L 628.8125 95.140625 L 629.1875 96.59375 L 629.359375 97.34375 L 629.703125 98.875 L 630.546875 103.140625 L 631.546875 108.34375 L 632.546875 113.8125 L 633.015625 116.46875 L 633.46875 119.125 L 634.6875 125.390625 L 634.703125 125.390625 L 636.109375 132.046875 L 636.09375 132.046875 L 637.46875 138.15625 L 637.484375 138.15625 L 638.125 140.78125 L 638.765625 143.390625 L 640.125 149.328125 L 641.46875 155.46875 L 642.625 161.109375 L 643.0625 163.46875 L 644.984375 173.96875 L 646.84375 184.421875 L 647.0625 185.53125 L 647.59375 188.15625 L 648.28125 191.21875 L 649.078125 194.625 L 650.390625 199.984375 L 650.40625 199.984375 L 651.84375 205.484375 L 652.796875 208.984375 L 652.8125 208.984375 L 653.296875 210.671875 L 653.78125 212.375 L 654.765625 216.03125 L 655.75 219.90625 L 656.703125 223.84375 L 657.59375 227.765625 L 658.421875 231.546875 L 659.140625 235.0625 L 659.703125 238.203125 L 659.921875 239.5625 L 660.140625 240.90625 L 660.125 240.90625 L 660.65625 243.984375 L 661.65625 249.375 L 663.28125 257.4375 L 663.296875 257.4375 L 665.046875 265.484375 L 665.90625 269.15625 L 666.328125 270.96875 L 667.1875 274.796875 L 667.984375 278.6875 L 668.75 282.578125 L 669.4375 286.34375 L 670.046875 289.890625 L 670.515625 293.09375 L 670.875 295.84375 L 670.984375 297 L 671.078125 298.1875 L 671.28125 301.109375 L 671.53125 306.578125 L 671.796875 315.375 L 671.9375 324.84375 L 671.96875 329.5 L 671.953125 334.4375 L 671.796875 347.265625 L 671.515625 362.015625 L 671.109375 376.9375 L 670.890625 383.8125 L 670.671875 390.390625 L 670.359375 402.328125 L 670.25 409.5625 L 670.234375 413.421875 L 670.265625 416.21875 L 670.3125 417.625 L 670.328125 417.796875 L 670.34375 417.875 L 670.359375 417.9375 L 670.515625 417.953125 L 671.421875 417.984375 L 672.03125 418 L 672.078125 418 L 672.578125 417.96875 L 672.75 417.9375 L 672.875 417.875 L 673.078125 417.71875 L 673.921875 416.9375 L 674.828125 415.921875 L 676.0625 414.390625 L 677.625 412.3125 L 679.53125 409.640625 L 683.109375 404.46875 L 689.640625 394.796875 L 698.421875 381.609375 L 703.921875 373.34375 L 734.671875 327.0625 L 765.828125 280.09375 L 769.921875 273.9375 L 777.40625 262.75 L 784.078125 252.875 L 790.046875 244.1875 L 795.34375 236.640625 L 800.0625 230.09375 L 804.25 224.46875 L 807.078125 220.8125 L 808.84375 218.609375 L 809.6875 217.59375 L 812.375 214.328125 L 818.6875 206.84375 L 825.40625 199.046875 L 831.703125 191.875 L 834.40625 188.859375 L 835.71875 187.421875 L 838.65625 184.234375 L 843.5625 179 L 850.53125 171.71875 L 855.578125 166.59375 L 858.671875 163.484375 L 860.109375 162.09375 L 861.5 160.71875 L 864.546875 157.8125 L 869.375 153.25 L 875.875 147.296875 L 880.328125 143.359375 L 882.921875 141.125 L 884.078125 140.15625 L 885.1875 139.21875 L 887.609375 137.265625 L 891.484375 134.234375 L 896.671875 130.265625 L 900.265625 127.65625 L 902.390625 126.15625 L 903.34375 125.53125 L 905.265625 124.265625 L 910.265625 121.109375 L 916.03125 117.609375 L 921.828125 114.203125 L 924.515625 112.671875 L 927.28125 111.109375 L 934.171875 107.34375 L 941.796875 103.25 L 949.28125 99.328125 L 952.625 97.59375 L 956.0625 95.84375 L 964.78125 91.484375 L 974.578125 86.65625 L 984.3125 81.953125 L 988.703125 79.859375 L 990.859375 78.8125 L 995.546875 76.65625 L 1003.03125 73.25 L 1013.125 68.796875 L 1020.03125 65.859375 L 1024.109375 64.171875 L 1025.890625 63.46875 L 1029.296875 62.109375 L 1035.953125 59.40625 L 1041.796875 57 L 1046.078125 55.1875 L 1047.28125 54.640625 L 1048.578125 54.078125 L 1053.109375 52.234375 L 1059.265625 49.875 L 1066.328125 47.203125 L 1069.96875 45.875 L 1073.75 44.484375 L 1082.40625 41.40625 L 1091.390625 38.265625 L 1099.640625 35.453125 L 1103.0625 34.328125 L 1104.828125 33.734375 L 1108.578125 32.578125 L 1112.484375 31.453125 L 1116.46875 30.359375 L 1120.46875 29.34375 L 1124.40625 28.40625 L 1128.203125 27.546875 L 1131.765625 26.84375 L 1133.453125 26.515625 L 1136.5625 25.953125 L 1143.421875 24.609375 L 1143.421875 24.59375 L 1150.5 23.078125 L 1156.78125 21.625 L 1161.8125 20.359375 L 1168.078125 18.921875 L 1174.984375 17.4375 L 1181.703125 16.09375 L 1184.6875 15.546875 L 1187.65625 15.046875 L 1194.203125 13.96875 L 1200.8125 12.984375 L 1206.6875 12.171875 L 1209 11.890625 L 1210.578125 11.703125 L 1213.28125 11.4375 L 1215.578125 11.234375 L 1217.546875 11.15625 L 1219.25 11.171875 L 1220.78125 11.296875 L 1222.203125 11.5625 L 1223.46875 11.96875 L 1224.109375 12.203125 L 1224.640625 12.4375 L 1225.625 12.96875 L 1226.5625 13.625 L 1227.40625 14.328125 L 1228.21875 15.09375 L 1228.96875 15.96875 L 1229.640625 16.890625 L 1230.21875 17.84375 L 1230.46875 18.34375 L 1230.78125 19.015625 L 1231.265625 20.28125 L 1231.640625 21.6875 L 1231.84375 23.1875 L 1231.890625 24.828125 L 1231.828125 26.703125 L 1231.65625 28.90625 L 1231.375 31.53125 L 1231.203125 33.078125 L 1230.90625 35.40625 L 1229.953125 41.921875 L 1228.65625 49.921875 L 1227.203125 58.40625 L 1226.453125 62.53125 L 1225.6875 66.71875 L 1223.859375 76.109375 L 1221.953125 85.640625 L 1220.171875 94.203125 L 1219.40625 97.65625 L 1219 99.453125 L 1217.9375 103.703125 L 1216.59375 108.625 L 1215.03125 114.046875 L 1213.3125 119.921875 L 1211.421875 126.0625 L 1209.4375 132.34375 L 1207.375 138.625 L 1206.34375 141.71875 L 1204.25 147.921875 L 1199.078125 162.828125 L 1193.390625 179.015625 L 1187.84375 194.53125 L 1185.40625 201.28125 L 1182.90625 208.09375 L 1176.96875 224.15625 L 1170.578125 241.375 L 1164.484375 257.59375 L 1161.859375 264.5625 L 1160.1875 268.921875 L 1157.15625 276.765625 L 1154.390625 283.71875 L 1151.859375 289.875 L 1149.515625 295.359375 L 1147.28125 300.28125 L 1145.125 304.765625 L 1143 308.921875 L 1141.9375 310.921875 L 1138.515625 317.171875 L 1130.875 331.0625 L 1127.875 336.453125 L 1127.234375 337.640625 L 1125.828125 340.25 Z"/>
    <filter id="filter2" x="0" y="0" width="1255" height="1085" filterUnits="userSpaceOnUse" primitiveUnits="userSpaceOnUse" color-interpolation-filters="sRGB">
        <feFlood flood-color="#000000" flood-opacity="0.297648"/>
        <feComposite in2="SourceGraphic" operator="out"/>
        <feGaussianBlur stdDeviation="37"/>
        <feOffset dx="0" dy="-8"/>
        <feComposite in2="SourceGraphic" operator="atop"/>
    </filter>
    <path id="path1" fill="#d62f2d" fill-rule="evenodd" stroke="#d12f37" stroke-linecap="round" filter="url(#filter2)" d="M 228.859375 72.90625 L 272.5625 93.875 L 309.375 112.9375 L 326.953125 123.21875 L 343.359375 134.09375 L 363.5 150.9375 L 363.5 150.921875 L 390.109375 176.578125 L 417.203125 206.921875 L 440.046875 234.859375 L 464.71875 272.3125 L 363.484375 290.171875 L 281.34375 169.953125 L 248.953125 124.5625 L 221.65625 92 L 193.203125 58.890625 Z"/>
    <filter id="filter3" x="0" y="0" width="1255" height="1085" filterUnits="userSpaceOnUse" primitiveUnits="userSpaceOnUse" color-interpolation-filters="sRGB">
        <feFlood flood-color="#000000" flood-opacity="0.297648"/>
        <feComposite in2="SourceGraphic" operator="out"/>
        <feGaussianBlur stdDeviation="37"/>
        <feOffset dx="0" dy="-8"/>
        <feComposite in2="SourceGraphic" operator="atop"/>
    </filter>
    <path id="path2" fill="#d22e2e" fill-rule="evenodd" stroke="#d12f37" stroke-linecap="round" filter="url(#filter3)" d="M 490.03125 441.515625 L 538.3125 456.671875 L 572.171875 469.28125 L 594.234375 478.25 L 605.828125 484.25 L 607.953125 486.09375 L 608.546875 487.046875 L 605.828125 487.5 L 578.140625 491.15625 L 465.09375 505.015625 L 462.953125 505.0625 L 462 504.484375 L 460.8125 502.625 L 459.484375 499.375 L 438.453125 426.9375 Z"/>
    <linearGradient id="linearGradient1" x1="328.029821" y1="1061.950382" x2="328.029821" y2="941.258283" gradientUnits="userSpaceOnUse">
        <stop offset="0" stop-color="#5f0209" stop-opacity="1"/>
        <stop offset="1" stop-color="#cd2e3a" stop-opacity="1"/>
    </linearGradient>
    <linearGradient id="linearGradient2" x1="327.414942" y1="1062" x2="327.414942" y2="941.325089" gradientUnits="userSpaceOnUse">
        <stop offset="0" stop-color="#5f0209" stop-opacity="1"/>
        <stop offset="1" stop-color="#cd2e3a" stop-opacity="1"/>
    </linearGradient>
    <filter id="filter4" x="0" y="0" width="1255" height="1085" filterUnits="userSpaceOnUse" primitiveUnits="userSpaceOnUse" color-interpolation-filters="sRGB">
        <feFlood flood-color="#000000" flood-opacity="0.297648"/>
        <feComposite in2="SourceGraphic" operator="out"/>
        <feGaussianBlur stdDeviation="37"/>
        <feOffset dx="0" dy="-8"/>
        <feComposite in2="SourceGraphic" operator="atop"/>
    </filter>
    <path id="path3" fill="url(#linearGradient1)" fill-rule="evenodd" stroke="url(#linearGradient2)" stroke-linecap="round" filter="url(#filter4)" d="M 331.234375 1022.46875 L 316.140625 1031.734375 L 293.453125 1048.09375 L 276.171875 1059.59375 L 273 1061.109375 L 271.125 1061.5 L 268.40625 1060.921875 L 266.375 1059.390625 L 265.671875 1056.640625 L 266.3125 1053.453125 L 277.71875 1025.046875 L 282.390625 1015.84375 L 292.40625 992.828125 L 297.65625 984.0625 L 388.875 942.21875 L 377.359375 982.984375 L 375.109375 988.96875 L 373.609375 991.625 L 372.015625 993.53125 L 357.421875 1003.59375 L 346.9375 1011.640625 L 339.8125 1016.140625 Z"/>
    <filter id="filter5" x="0" y="0" width="1255" height="1085" filterUnits="userSpaceOnUse" primitiveUnits="userSpaceOnUse" color-interpolation-filters="sRGB">
        <feFlood flood-color="#000000" flood-opacity="0.297648"/>
        <feComposite in2="SourceGraphic" operator="out"/>
        <feGaussianBlur stdDeviation="37"/>
        <feOffset dx="0" dy="-8"/>
        <feComposite in2="SourceGraphic" operator="atop"/>
    </filter>
    <path id="path4" fill="#d12f37" fill-rule="evenodd" stroke="#d12f37" stroke-linecap="round" filter="url(#filter5)" d="M 119.1875 373.359375 L 123.9375 369.484375 L 128.359375 366.65625 L 129.46875 368.0625 L 135.59375 380.890625 L 145.625 398.71875 L 159.90625 422.015625 L 170.921875 439 L 184.03125 456.921875 L 207.6875 485.78125 L 212.765625 492.84375 L 212.078125 494.15625 L 209.140625 496.609375 L 182.9375 512.859375 L 163.578125 527.140625 L 160.21875 528.9375 L 157.59375 529.46875 L 151.21875 528.15625 L 151.21875 528.140625 L 144.703125 526.109375 L 144.703125 526.125 L 132.375 520.765625 L 127.65625 517.984375 L 122.359375 514.125 L 117.3125 509.9375 L 112.9375 505.65625 L 105.125 496.53125 L 100.5 489.375 L 97.625 484.109375 L 92.15625 470.265625 L 89.34375 458.046875 L 88.328125 450.875 L 87.828125 443.53125 L 88.625 431.390625 L 90.3125 421.96875 L 91.90625 415.515625 L 96.65625 402.875 L 103.40625 390.84375 L 109.265625 383.328125 L 113.84375 378.34375 Z"/>
    <filter id="filter6" x="0" y="0" width="1255" height="1085" filterUnits="userSpaceOnUse" primitiveUnits="userSpaceOnUse" color-interpolation-filters="sRGB">
        <feFlood flood-color="#000000" flood-opacity="0.297648"/>
        <feComposite in2="SourceGraphic" operator="out"/>
        <feGaussianBlur stdDeviation="37"/>
        <feOffset dx="0" dy="-8"/>
        <feComposite in2="SourceGraphic" operator="atop"/>
    </filter>
    <path id="path5" fill="#cf2a2c" fill-rule="evenodd" stroke="#d12f37" stroke-linecap="round" filter="url(#filter6)" d="M 422.90625 515.71875 L 423.78125 518.828125 L 423.390625 519.734375 L 422.046875 520.5625 L 407.609375 525.75 L 395.53125 528.953125 L 380.25 531.78125 L 380.25 531.765625 L 370.9375 532.859375 L 354.75 533.78125 L 325.609375 533.890625 L 307.6875 531.703125 L 307.6875 531.71875 L 303.015625 530.828125 L 301.03125 529.953125 L 300.40625 528.609375 L 300.140625 525.828125 L 300.046875 505.5 L 352.9375 505.25 L 417.734375 504.328125 Z"/>
    <filter id="filter7" x="0" y="0" width="1255" height="1085" filterUnits="userSpaceOnUse" primitiveUnits="userSpaceOnUse" color-interpolation-filters="sRGB">
        <feFlood flood-color="#000000" flood-opacity="0.297648"/>
        <feComposite in2="SourceGraphic" operator="out"/>
        <feGaussianBlur stdDeviation="37"/>
        <feOffset dx="0" dy="-8"/>
        <feComposite in2="SourceGraphic" operator="atop"/>
    </filter>
    <path id="Shape-copy-21" fill="#17cdae" fill-rule="evenodd" stroke="#17cdae" stroke-width="2" stroke-linecap="round" filter="url(#filter7)" d="M 1056.296875 865.375 L 1019.234375 945.3125 L 900.6875 853.15625 L 977.6875 785.203125 Z"/>
    <filter id="filter8" x="0" y="0" width="1255" height="1085" filterUnits="userSpaceOnUse" primitiveUnits="userSpaceOnUse" color-interpolation-filters="sRGB">
        <feFlood flood-color="#000000" flood-opacity="0.297648"/>
        <feComposite in2="SourceGraphic" operator="out"/>
        <feGaussianBlur stdDeviation="37"/>
        <feOffset dx="0" dy="-8"/>
        <feComposite in2="SourceGraphic" operator="atop"/>
    </filter>
    <path id="path6" fill="#17cdae" fill-rule="evenodd" stroke="#17cdae" stroke-width="2" stroke-linecap="round" filter="url(#filter8)" d="M 339.453125 851.15625 L 220.921875 943.3125 L 183.84375 863.375 L 262.453125 783.203125 Z"/>
    <linearGradient id="linearGradient3" x1="1028.233574" y1="530.66825" x2="1028.233574" y2="303.309695" gradientUnits="userSpaceOnUse">
        <stop offset="0" stop-color="#0059a9" stop-opacity="1"/>
        <stop offset="1" stop-color="#0069c8" stop-opacity="1"/>
    </linearGradient>
    <filter id="filter9" x="0" y="0" width="1255" height="1085" filterUnits="userSpaceOnUse" primitiveUnits="userSpaceOnUse" color-interpolation-filters="sRGB">
        <feFlood flood-color="#000000" flood-opacity="0.297648"/>
        <feComposite in2="SourceGraphic" operator="out"/>
        <feGaussianBlur stdDeviation="37"/>
        <feOffset dx="0" dy="-8"/>
        <feComposite in2="SourceGraphic" operator="atop"/>
    </filter>
    <path id="Shape-copy-20" fill="url(#linearGradient3)" fill-rule="evenodd" stroke="#0063bb" stroke-linecap="round" filter="url(#filter9)" d="M 958.53125 305.890625 L 1118.6875 345.515625 L 1117.65625 346.578125 L 1118.3125 347.265625 L 1118.359375 347.21875 L 1103.421875 382.375 L 1075.375 428.6875 L 1055.8125 456.75 L 1025.046875 493.0625 L 1014.90625 500.265625 L 995.953125 511.40625 L 977.796875 519.375 L 959.09375 524.3125 L 940.234375 530.21875 L 939.78125 530.015625 L 940.796875 529.515625 L 940.15625 490.546875 L 940.65625 490.421875 L 939.96875 303.984375 Z"/>
    <linearGradient id="linearGradient4" x1="211.933283" y1="530.66825" x2="211.933283" y2="303.309695" gradientUnits="userSpaceOnUse">
        <stop offset="0" stop-color="#0059a9" stop-opacity="1"/>
        <stop offset="1" stop-color="#0069c8" stop-opacity="1"/>
    </linearGradient>
    <filter id="filter10" x="0" y="0" width="1255" height="1085" filterUnits="userSpaceOnUse" primitiveUnits="userSpaceOnUse" color-interpolation-filters="sRGB">
        <feFlood flood-color="#000000" flood-opacity="0.297648"/>
        <feComposite in2="SourceGraphic" operator="out"/>
        <feGaussianBlur stdDeviation="37"/>
        <feOffset dx="0" dy="-8"/>
        <feComposite in2="SourceGraphic" operator="atop"/>
    </filter>
    <path id="path7" fill="url(#linearGradient4)" fill-rule="evenodd" stroke="#0063bb" stroke-width="2" stroke-linecap="round" filter="url(#filter10)" d="M 299 490.8125 L 299.484375 490.9375 L 298.84375 529.359375 L 281.1875 523.828125 L 262.609375 518.921875 L 244.359375 510.921875 L 225.5625 499.890625 L 215.46875 492.71875 L 184.796875 456.5 L 165.203125 428.390625 L 137.1875 382.171875 L 122.40625 347.375 L 123.1875 346.578125 L 122.421875 345.78125 L 281.65625 306.390625 L 299.6875 304.53125 Z"/>
    <filter id="filter11" x="0" y="0" width="1255" height="1085" filterUnits="userSpaceOnUse" primitiveUnits="userSpaceOnUse" color-interpolation-filters="sRGB">
        <feFlood flood-color="#000000" flood-opacity="0.297648"/>
        <feComposite in2="SourceGraphic" operator="out"/>
        <feGaussianBlur stdDeviation="37"/>
        <feOffset dx="0" dy="-8"/>
        <feComposite in2="SourceGraphic" operator="atop"/>
    </filter>
    <path id="path8" fill="#ffc204" fill-rule="evenodd" stroke="#ffc204" stroke-linecap="round" filter="url(#filter11)" d="M 604.328125 482.125 L 588.84375 474.84375 L 561.140625 464.046875 L 524.171875 450.609375 L 420.390625 420.3125 L 360.59375 406.046875 L 301.390625 395.71875 L 300.796875 302.953125 L 465.234375 272.96875 Z"/>
    <filter id="filter12" x="0" y="0" width="1255" height="1085" filterUnits="userSpaceOnUse" primitiveUnits="userSpaceOnUse" color-interpolation-filters="sRGB">
        <feFlood flood-color="#000000" flood-opacity="0.297648"/>
        <feComposite in2="SourceGraphic" operator="out"/>
        <feGaussianBlur stdDeviation="37"/>
        <feOffset dx="0" dy="-8"/>
        <feComposite in2="SourceGraphic" operator="atop"/>
    </filter>
    <path id="path9" fill="#ffc005" fill-rule="evenodd" stroke="#ffc204" stroke-linecap="round" filter="url(#filter12)" d="M 280.21875 169.265625 L 280.75 304.96875 L 120.8125 344.90625 L 94 295.984375 L 65.6875 221.3125 L 43.59375 160.53125 Z"/>
    <linearGradient id="linearGradient5" x1="354.423906" y1="984.568817" x2="354.423906" y2="875.150981" gradientUnits="userSpaceOnUse">
        <stop offset="0" stop-color="#b28600" stop-opacity="1"/>
        <stop offset="1" stop-color="#ffc204" stop-opacity="1"/>
    </linearGradient>
    <linearGradient id="linearGradient6" x1="353.852107" y1="984.6138" x2="353.852107" y2="875.211546" gradientUnits="userSpaceOnUse">
        <stop offset="0" stop-color="#b28600" stop-opacity="1"/>
        <stop offset="1" stop-color="#ffc204" stop-opacity="1"/>
    </linearGradient>
    <filter id="filter13" x="0" y="0" width="1255" height="1085" filterUnits="userSpaceOnUse" primitiveUnits="userSpaceOnUse" color-interpolation-filters="sRGB">
        <feFlood flood-color="#000000" flood-opacity="0.297648"/>
        <feComposite in2="SourceGraphic" operator="out"/>
        <feGaussianBlur stdDeviation="37"/>
        <feOffset dx="0" dy="-8"/>
        <feComposite in2="SourceGraphic" operator="atop"/>
    </filter>
    <path id="path10" fill="url(#linearGradient5)" fill-rule="evenodd" stroke="url(#linearGradient6)" stroke-linecap="round" filter="url(#filter13)" d="M 375.15625 899.703125 L 397.84375 921.546875 L 410.75 930.859375 L 297.078125 983.546875 L 353.390625 876.0625 Z"/>
    <filter id="filter14" x="0" y="0" width="1255" height="1085" filterUnits="userSpaceOnUse" primitiveUnits="userSpaceOnUse" color-interpolation-filters="sRGB">
        <feFlood flood-color="#000000" flood-opacity="0.297648"/>
        <feComposite in2="SourceGraphic" operator="out"/>
        <feGaussianBlur stdDeviation="37"/>
        <feOffset dx="0" dy="-8"/>
        <feComposite in2="SourceGraphic" operator="atop"/>
    </filter>
    <path id="path11" fill="#ffc302" fill-rule="evenodd" stroke="#ffc204" stroke-linecap="round" filter="url(#filter14)" d="M 380.859375 432 L 417.15625 503.765625 L 392.109375 504.375 L 300.5 504.5 L 300.5 431.46875 Z"/>
    <filter id="filter15" x="0" y="0" width="1255" height="1085" filterUnits="userSpaceOnUse" primitiveUnits="userSpaceOnUse" color-interpolation-filters="sRGB">
        <feFlood flood-color="#000000" flood-opacity="0.297648"/>
        <feComposite in2="SourceGraphic" operator="out"/>
        <feGaussianBlur stdDeviation="37"/>
        <feOffset dx="0" dy="-8"/>
        <feComposite in2="SourceGraphic" operator="atop"/>
    </filter>
    <path id="path12" fill="#ffc204" fill-rule="evenodd" stroke="#ffc204" stroke-linecap="round" filter="url(#filter15)" d="M 394.703125 606.78125 L 255.578125 685.421875 L 221.625 585.21875 L 354.6875 536.828125 Z"/>
    <filter id="filter16" x="0" y="0" width="1255" height="1085" filterUnits="userSpaceOnUse" primitiveUnits="userSpaceOnUse" color-interpolation-filters="sRGB">
        <feFlood flood-color="#000000" flood-opacity="0.297648"/>
        <feComposite in2="SourceGraphic" operator="out"/>
        <feGaussianBlur stdDeviation="37"/>
        <feOffset dx="0" dy="-8"/>
        <feComposite in2="SourceGraphic" operator="atop"/>
    </filter>
    <path id="path13" fill="#ffc204" fill-rule="evenodd" stroke="#ffc204" stroke-linecap="round" filter="url(#filter16)" d="M 419.171875 633.28125 L 438.890625 651.5625 L 485.390625 689.84375 L 496.875 696.0625 L 340.203125 853.484375 L 260.640625 783.578125 L 403.15625 611.8125 Z"/>
    <filter id="filter17" x="0" y="0" width="1255" height="1085" filterUnits="userSpaceOnUse" primitiveUnits="userSpaceOnUse" color-interpolation-filters="sRGB">
        <feFlood flood-color="#000000" flood-opacity="0.297648"/>
        <feComposite in2="SourceGraphic" operator="out"/>
        <feGaussianBlur stdDeviation="37"/>
        <feOffset dx="0" dy="-8"/>
        <feComposite in2="SourceGraphic" operator="atop"/>
    </filter>
    <path id="path14" fill="#fec604" fill-rule="evenodd" stroke="#ffc204" stroke-linecap="round" filter="url(#filter17)" d="M 122.28125 713.484375 L 165.75 729.015625 L 205.96875 740.890625 L 230.015625 744.703125 L 163.765625 818.09375 L 118.3125 714.015625 L 117.15625 711.921875 Z"/>
    <filter id="filter18" x="0" y="0" width="1255" height="1085" filterUnits="userSpaceOnUse" primitiveUnits="userSpaceOnUse" color-interpolation-filters="sRGB">
        <feFlood flood-color="#000000" flood-opacity="0.297648"/>
        <feComposite in2="SourceGraphic" operator="out"/>
        <feGaussianBlur stdDeviation="37"/>
        <feOffset dx="0" dy="-8"/>
        <feComposite in2="SourceGraphic" operator="atop"/>
    </filter>
    <path id="Shape-copy-19" fill="#ffc204" fill-rule="evenodd" stroke="#ffc204" stroke-linecap="round" filter="url(#filter18)" d="M 939.34375 302.953125 L 938.765625 395.71875 L 879.546875 406.046875 L 819.765625 420.3125 L 715.984375 450.609375 L 679.015625 464.046875 L 651.328125 474.828125 L 635.828125 482.125 L 774.90625 272.96875 Z"/>
    <filter id="filter19" x="0" y="0" width="1255" height="1085" filterUnits="userSpaceOnUse" primitiveUnits="userSpaceOnUse" color-interpolation-filters="sRGB">
        <feFlood flood-color="#000000" flood-opacity="0.297648"/>
        <feComposite in2="SourceGraphic" operator="out"/>
        <feGaussianBlur stdDeviation="37"/>
        <feOffset dx="0" dy="-8"/>
        <feComposite in2="SourceGraphic" operator="atop"/>
    </filter>
    <path id="Shape-copy-18" fill="#ffc005" fill-rule="evenodd" stroke="#ffc204" stroke-linecap="round" filter="url(#filter19)" d="M 1174.46875 221.3125 L 1146.140625 295.984375 L 1119.34375 344.90625 L 959.40625 304.96875 L 959.9375 169.265625 L 1196.546875 160.53125 Z"/>
    <linearGradient id="linearGradient7" x1="885.742951" y1="984.568817" x2="885.742951" y2="875.150981" gradientUnits="userSpaceOnUse">
        <stop offset="0" stop-color="#b28600" stop-opacity="1"/>
        <stop offset="1" stop-color="#ffc204" stop-opacity="1"/>
    </linearGradient>
    <linearGradient id="linearGradient8" x1="886.314753" y1="984.6138" x2="886.314753" y2="875.211546" gradientUnits="userSpaceOnUse">
        <stop offset="0" stop-color="#b28600" stop-opacity="1"/>
        <stop offset="1" stop-color="#ffc204" stop-opacity="1"/>
    </linearGradient>
    <filter id="filter20" x="0" y="0" width="1255" height="1085" filterUnits="userSpaceOnUse" primitiveUnits="userSpaceOnUse" color-interpolation-filters="sRGB">
        <feFlood flood-color="#000000" flood-opacity="0.297648"/>
        <feComposite in2="SourceGraphic" operator="out"/>
        <feGaussianBlur stdDeviation="37"/>
        <feOffset dx="0" dy="-8"/>
        <feComposite in2="SourceGraphic" operator="atop"/>
    </filter>
    <path id="Shape-copy-17" fill="url(#linearGradient7)" fill-rule="evenodd" stroke="url(#linearGradient8)" stroke-linecap="round" filter="url(#filter20)" d="M 943.0625 983.546875 L 829.40625 930.859375 L 842.296875 921.546875 L 864.984375 899.703125 L 886.75 876.0625 Z"/>
    <filter id="filter21" x="0" y="0" width="1255" height="1085" filterUnits="userSpaceOnUse" primitiveUnits="userSpaceOnUse" color-interpolation-filters="sRGB">
        <feFlood flood-color="#000000" flood-opacity="0.297648"/>
        <feComposite in2="SourceGraphic" operator="out"/>
        <feGaussianBlur stdDeviation="37"/>
        <feOffset dx="0" dy="-8"/>
        <feComposite in2="SourceGraphic" operator="atop"/>
    </filter>
    <path id="Shape-copy-16" fill="#ffc302" fill-rule="evenodd" stroke="#ffc204" stroke-linecap="round" filter="url(#filter21)" d="M 939.65625 504.5 L 848.015625 504.375 L 822.984375 503.765625 L 859.28125 432 L 939.65625 431.46875 Z"/>
    <filter id="filter22" x="0" y="0" width="1255" height="1085" filterUnits="userSpaceOnUse" primitiveUnits="userSpaceOnUse" color-interpolation-filters="sRGB">
        <feFlood flood-color="#000000" flood-opacity="0.297648"/>
        <feComposite in2="SourceGraphic" operator="out"/>
        <feGaussianBlur stdDeviation="37"/>
        <feOffset dx="0" dy="-8"/>
        <feComposite in2="SourceGraphic" operator="atop"/>
    </filter>
    <path id="Shape-copy-15" fill="#ffc204" fill-rule="evenodd" stroke="#ffc204" stroke-linecap="round" filter="url(#filter22)" d="M 1018.53125 585.21875 L 984.578125 685.421875 L 845.453125 606.78125 L 885.46875 536.828125 Z"/>
    <filter id="filter23" x="0" y="0" width="1255" height="1085" filterUnits="userSpaceOnUse" primitiveUnits="userSpaceOnUse" color-interpolation-filters="sRGB">
        <feFlood flood-color="#000000" flood-opacity="0.297648"/>
        <feComposite in2="SourceGraphic" operator="out"/>
        <feGaussianBlur stdDeviation="37"/>
        <feOffset dx="0" dy="-8"/>
        <feComposite in2="SourceGraphic" operator="atop"/>
    </filter>
    <path id="Shape-copy-14" fill="#ffc204" fill-rule="evenodd" stroke="#ffc204" stroke-linecap="round" filter="url(#filter23)" d="M 979.5 783.578125 L 899.953125 853.484375 L 743.28125 696.0625 L 754.765625 689.84375 L 801.265625 651.5625 L 820.984375 633.28125 L 837 611.8125 Z"/>
    <filter id="filter24" x="0" y="0" width="1255" height="1085" filterUnits="userSpaceOnUse" primitiveUnits="userSpaceOnUse" color-interpolation-filters="sRGB">
        <feFlood flood-color="#000000" flood-opacity="0.297648"/>
        <feComposite in2="SourceGraphic" operator="out"/>
        <feGaussianBlur stdDeviation="37"/>
        <feOffset dx="0" dy="-8"/>
        <feComposite in2="SourceGraphic" operator="atop"/>
    </filter>
    <path id="Shape-copy-13" fill="#fec604" fill-rule="evenodd" stroke="#ffc204" stroke-linecap="round" filter="url(#filter24)" d="M 1121.84375 714.015625 L 1076.390625 818.09375 L 1010.140625 744.703125 L 1034.171875 740.890625 L 1074.40625 729.015625 L 1117.859375 713.484375 L 1123 711.921875 Z"/>
    <filter id="filter25" x="0" y="0" width="1255" height="1085" filterUnits="userSpaceOnUse" primitiveUnits="userSpaceOnUse" color-interpolation-filters="sRGB">
        <feFlood flood-color="#000000" flood-opacity="0.297648"/>
        <feComposite in2="SourceGraphic" operator="out"/>
        <feGaussianBlur stdDeviation="37"/>
        <feOffset dx="0" dy="-8"/>
        <feComposite in2="SourceGraphic" operator="atop"/>
    </filter>
    <path id="Shape-copy-12" fill="#d62f2d" fill-rule="evenodd" stroke="#d12f37" stroke-linecap="round" filter="url(#filter25)" d="M 1018.5 92 L 991.21875 124.546875 L 958.8125 169.9375 L 876.65625 290.171875 L 775.421875 272.3125 L 800.109375 234.859375 L 822.9375 206.9375 L 850 176.609375 L 876.640625 150.921875 L 876.640625 150.9375 L 896.796875 134.09375 L 913.171875 123.234375 L 930.78125 112.9375 L 967.609375 93.859375 L 1011.296875 72.90625 L 1046.96875 58.875 Z"/>
    <filter id="filter26" x="0" y="0" width="1255" height="1085" filterUnits="userSpaceOnUse" primitiveUnits="userSpaceOnUse" color-interpolation-filters="sRGB">
        <feFlood flood-color="#000000" flood-opacity="0.297648"/>
        <feComposite in2="SourceGraphic" operator="out"/>
        <feGaussianBlur stdDeviation="37"/>
        <feOffset dx="0" dy="-8"/>
        <feComposite in2="SourceGraphic" operator="atop"/>
    </filter>
    <path id="Shape-copy-11" fill="#d22e2e" fill-rule="evenodd" stroke="#d12f37" stroke-linecap="round" filter="url(#filter26)" d="M 701.859375 456.671875 L 750.140625 441.515625 L 801.703125 426.9375 L 780.65625 499.375 L 779.34375 502.625 L 778.15625 504.484375 L 777.203125 505.0625 L 775.0625 505.015625 L 662.015625 491.15625 L 634.328125 487.5 L 631.59375 487.046875 L 632.15625 486.109375 L 634.328125 484.25 L 645.9375 478.25 L 667.984375 469.28125 Z"/>
    <linearGradient id="linearGradient9" x1="618.875917" y1="728.768321" x2="618.875917" y2="578.547707" gradientUnits="userSpaceOnUse">
        <stop offset="0" stop-color="#5f0209" stop-opacity="1"/>
        <stop offset="1" stop-color="#cd2e3a" stop-opacity="1"/>
    </linearGradient>
    <linearGradient id="linearGradient10" x1="620.083424" y1="728.830078" x2="620.083424" y2="578.630857" gradientUnits="userSpaceOnUse">
        <stop offset="0" stop-color="#5f0209" stop-opacity="1"/>
        <stop offset="1" stop-color="#cd2e3a" stop-opacity="1"/>
    </linearGradient>
    <filter id="filter27" x="0" y="0" width="1255" height="1085" filterUnits="userSpaceOnUse" primitiveUnits="userSpaceOnUse" color-interpolation-filters="sRGB">
        <feFlood flood-color="#000000" flood-opacity="0.297648"/>
        <feComposite in2="SourceGraphic" operator="out"/>
        <feGaussianBlur stdDeviation="37"/>
        <feOffset dx="0" dy="-8"/>
        <feComposite in2="SourceGraphic" operator="atop"/>
    </filter>
    <path id="Shape-copy-10" fill="url(#linearGradient9)" fill-rule="evenodd" stroke="url(#linearGradient10)" stroke-linecap="round" filter="url(#filter27)" d="M 620.5 580.609375 L 741.4375 696.796875 L 726.421875 703.9375 L 712.03125 709.8125 L 712.03125 709.828125 L 697.3125 714.9375 L 697.3125 714.921875 L 682.21875 719.265625 L 666.84375 722.796875 L 666.84375 722.78125 L 651.125 725.484375 L 635.140625 727.34375 L 619.15625 728.328125 L 605.015625 727.34375 L 589.03125 725.484375 L 573.296875 722.78125 L 573.296875 722.796875 L 557.9375 719.25 L 542.828125 714.921875 L 528.125 709.8125 L 513.734375 703.9375 L 498.703125 696.796875 L 619.65625 580.609375 L 619.65625 579.78125 L 620.078125 580.1875 L 620.5 579.78125 Z"/>
    <linearGradient id="linearGradient11" x1="912.137036" y1="1061.950382" x2="912.137036" y2="941.258283" gradientUnits="userSpaceOnUse">
        <stop offset="0" stop-color="#5f0209" stop-opacity="1"/>
        <stop offset="1" stop-color="#cd2e3a" stop-opacity="1"/>
    </linearGradient>
    <linearGradient id="linearGradient12" x1="912.751917" y1="1062" x2="912.751917" y2="941.325089" gradientUnits="userSpaceOnUse">
        <stop offset="0" stop-color="#5f0209" stop-opacity="1"/>
        <stop offset="1" stop-color="#cd2e3a" stop-opacity="1"/>
    </linearGradient>
    <filter id="filter28" x="0" y="0" width="1255" height="1085" filterUnits="userSpaceOnUse" primitiveUnits="userSpaceOnUse" color-interpolation-filters="sRGB">
        <feFlood flood-color="#000000" flood-opacity="0.297648"/>
        <feComposite in2="SourceGraphic" operator="out"/>
        <feGaussianBlur stdDeviation="37"/>
        <feOffset dx="0" dy="-8"/>
        <feComposite in2="SourceGraphic" operator="atop"/>
    </filter>
    <path id="Shape-copy-9" fill="url(#linearGradient11)" fill-rule="evenodd" stroke="url(#linearGradient12)" stroke-linecap="round" filter="url(#filter28)" d="M 942.5 984.0625 L 947.75 992.828125 L 957.765625 1015.84375 L 962.40625 1025.015625 L 973.84375 1053.453125 L 974.484375 1056.640625 L 973.78125 1059.375 L 971.71875 1060.9375 L 969.03125 1061.5 L 967.15625 1061.109375 L 963.984375 1059.59375 L 946.703125 1048.09375 L 924.015625 1031.734375 L 908.921875 1022.46875 L 900.34375 1016.140625 L 893.21875 1011.640625 L 882.71875 1003.59375 L 868.140625 993.53125 L 866.546875 991.625 L 865.046875 988.96875 L 862.796875 982.984375 L 851.28125 942.21875 Z"/>
    <filter id="filter29" x="0" y="0" width="1255" height="1085" filterUnits="userSpaceOnUse" primitiveUnits="userSpaceOnUse" color-interpolation-filters="sRGB">
        <feFlood flood-color="#000000" flood-opacity="0.297648"/>
        <feComposite in2="SourceGraphic" operator="out"/>
        <feGaussianBlur stdDeviation="37"/>
        <feOffset dx="0" dy="-8"/>
        <feComposite in2="SourceGraphic" operator="atop"/>
    </filter>
    <path id="Shape-copy-8" fill="#d12f37" fill-rule="evenodd" stroke="#d12f37" stroke-linecap="round" filter="url(#filter29)" d="M 1116.203125 369.484375 L 1120.9375 373.328125 L 1126.3125 378.34375 L 1130.890625 383.328125 L 1136.75 390.84375 L 1143.484375 402.875 L 1148.234375 415.515625 L 1150.34375 424.359375 L 1150.328125 424.359375 L 1151.515625 431.4375 L 1152.328125 443.46875 L 1151.828125 450.875 L 1150.8125 458.046875 L 1147.984375 470.265625 L 1142.53125 484.109375 L 1139.65625 489.375 L 1135.03125 496.53125 L 1127.203125 505.65625 L 1122.84375 509.9375 L 1117.796875 514.125 L 1112.5 517.984375 L 1107.78125 520.765625 L 1095.453125 526.125 L 1095.453125 526.109375 L 1088.9375 528.140625 L 1088.9375 528.15625 L 1082.5625 529.46875 L 1079.921875 528.9375 L 1076.578125 527.140625 L 1057.21875 512.859375 L 1031.015625 496.609375 L 1028.078125 494.140625 L 1027.375 492.84375 L 1032.453125 485.796875 L 1056.125 456.921875 L 1069.203125 439 L 1080.25 422.015625 L 1094.515625 398.734375 L 1104.5625 380.890625 L 1110.6875 368.0625 L 1111.78125 366.671875 Z"/>
    <filter id="filter30" x="0" y="0" width="1255" height="1085" filterUnits="userSpaceOnUse" primitiveUnits="userSpaceOnUse" color-interpolation-filters="sRGB">
        <feFlood flood-color="#000000" flood-opacity="0.297648"/>
        <feComposite in2="SourceGraphic" operator="out"/>
        <feGaussianBlur stdDeviation="37"/>
        <feOffset dx="0" dy="-8"/>
        <feComposite in2="SourceGraphic" operator="atop"/>
    </filter>
    <path id="Shape-copy-7" fill="#cf2a2c" fill-rule="evenodd" stroke="#d12f37" stroke-linecap="round" filter="url(#filter30)" d="M 887.203125 505.25 L 940.09375 505.5 L 940.015625 525.78125 L 939.75 528.609375 L 939.125 529.953125 L 937.140625 530.828125 L 932.46875 531.71875 L 932.46875 531.703125 L 914.53125 533.890625 L 885.390625 533.78125 L 869.203125 532.859375 L 859.90625 531.765625 L 859.90625 531.78125 L 844.625 528.953125 L 832.546875 525.75 L 818.09375 520.5625 L 816.765625 519.734375 L 816.375 518.8125 L 817.234375 515.71875 L 822.40625 504.328125 Z"/>
    <filter id="filter31" x="0" y="0" width="1255" height="1085" filterUnits="userSpaceOnUse" primitiveUnits="userSpaceOnUse" color-interpolation-filters="sRGB">
        <feFlood flood-color="#000000" flood-opacity="0.297648"/>
        <feComposite in2="SourceGraphic" operator="out"/>
        <feGaussianBlur stdDeviation="37"/>
        <feOffset dx="0" dy="-8"/>
        <feComposite in2="SourceGraphic" operator="atop"/>
    </filter>
    <path id="Shape-copy-6" fill="#8f0754" fill-rule="evenodd" stroke="#8f0754" stroke-linecap="round" filter="url(#filter31)" d="M 959.40625 305.5625 L 917.453125 299.765625 L 877.296875 290.625 L 958.953125 171.390625 Z"/>
    <filter id="filter32" x="0" y="0" width="1255" height="1085" filterUnits="userSpaceOnUse" primitiveUnits="userSpaceOnUse" color-interpolation-filters="sRGB">
        <feFlood flood-color="#000000" flood-opacity="0.297648"/>
        <feComposite in2="SourceGraphic" operator="out"/>
        <feGaussianBlur stdDeviation="37"/>
        <feOffset dx="0" dy="-8"/>
        <feComposite in2="SourceGraphic" operator="atop"/>
    </filter>
    <path id="Shape-copy-5" fill="#8f0754" fill-rule="evenodd" stroke="#8f0754" stroke-linecap="round" filter="url(#filter32)" d="M 1048.671875 58.53125 L 1050.640625 56.96875 L 1055.171875 54.875 L 1086.796875 43.484375 L 1119.796875 32.625 L 1146.171875 27.765625 L 1170.75 21.75 L 1184.515625 19.015625 L 1184.515625 19.03125 L 1210.28125 15.1875 L 1216.53125 14.578125 L 1220.578125 14.6875 L 1223.609375 15.546875 L 1225.671875 16.859375 L 1227.1875 18.90625 L 1228.28125 21.859375 L 1228.5 24.328125 L 1228 30.75 L 1225.59375 47.578125 L 1225.609375 47.578125 L 1217.96875 88.078125 L 1212.65625 111.125 L 1203.390625 139.53125 L 1196.125 160.34375 L 1132.140625 162.03125 L 1043.546875 166.046875 L 986.375 169.265625 L 962.890625 169.734375 L 960.109375 169.453125 L 959.796875 169.1875 L 962.21875 164.421875 L 962.203125 164.421875 L 967.4375 156.28125 L 971.09375 151.59375 L 977.34375 144.671875 L 983.65625 135.09375 L 989.484375 128.421875 L 995.640625 120.15625 L 1013.328125 98.71875 L 1038 71.65625 Z"/>
    <linearGradient id="linearGradient13" x1="857.54198" y1="1055.846506" x2="857.54198" y2="697.471335" gradientUnits="userSpaceOnUse">
        <stop offset="0" stop-color="#49062c" stop-opacity="1"/>
        <stop offset="1" stop-color="#8f0754" stop-opacity="1"/>
    </linearGradient>
    <linearGradient id="linearGradient14" x1="859.128515" y1="1055.993837" x2="859.128515" y2="697.669706" gradientUnits="userSpaceOnUse">
        <stop offset="0" stop-color="#49062c" stop-opacity="1"/>
        <stop offset="1" stop-color="#8f0754" stop-opacity="1"/>
    </linearGradient>
    <filter id="filter33" x="0" y="0" width="1255" height="1085" filterUnits="userSpaceOnUse" primitiveUnits="userSpaceOnUse" color-interpolation-filters="sRGB">
        <feFlood flood-color="#000000" flood-opacity="0.297648"/>
        <feComposite in2="SourceGraphic" operator="out"/>
        <feGaussianBlur stdDeviation="37"/>
        <feOffset dx="0" dy="-8"/>
        <feComposite in2="SourceGraphic" operator="atop"/>
    </filter>
    <path id="Shape-copy-4" fill="url(#linearGradient13)" fill-rule="evenodd" stroke="url(#linearGradient14)" stroke-linecap="round" filter="url(#filter33)" d="M 744.28125 698.765625 L 873.765625 827.84375 L 900.96875 853.703125 L 924.609375 873.65625 L 1014.03125 942.71875 L 1018.734375 947.046875 L 1019.1875 947.90625 L 1018.921875 949.046875 L 1008 974.796875 L 999.859375 1000.28125 L 993.890625 1016.40625 L 982.59375 1042.0625 L 976.171875 1054.796875 L 957.71875 1011.796875 L 943.609375 982.28125 L 894.5625 887.875 L 889.296875 878.5625 L 887.28125 876.140625 L 885.59375 876.140625 L 883.625 877.78125 L 866.890625 895.65625 L 851.171875 911.53125 L 840.0625 921.515625 L 831.765625 927.953125 L 829.578125 930.390625 L 829.78125 931.5625 L 831.484375 932.8125 L 847.359375 940.703125 L 849.6875 943.03125 L 864.4375 991.375 L 864.671875 992.4375 L 850.953125 983.6875 L 843.953125 978.75 L 809.078125 952.84375 L 793.5 940.265625 L 783.328125 931.34375 L 768.296875 916.609375 L 755.921875 903.3125 L 748.21875 894.34375 L 733.265625 872.8125 L 724.046875 857.515625 L 716.515625 841.71875 L 711.734375 827.46875 L 707.796875 808.25 L 706.375 793.828125 L 706.1875 780.84375 L 706.671875 733.078125 L 706.265625 720.796875 L 705.875 718.8125 L 704.71875 717.59375 L 702.109375 716.453125 L 699.875 716.125 L 721.6875 707.140625 L 739.359375 699.09375 L 742.546875 698.171875 Z"/>
    <filter id="filter34" x="0" y="0" width="1255" height="1085" filterUnits="userSpaceOnUse" primitiveUnits="userSpaceOnUse" color-interpolation-filters="sRGB">
        <feFlood flood-color="#000000" flood-opacity="0.297648"/>
        <feComposite in2="SourceGraphic" operator="out"/>
        <feGaussianBlur stdDeviation="37"/>
        <feOffset dx="0" dy="-8"/>
        <feComposite in2="SourceGraphic" operator="atop"/>
    </filter>
    <path id="Shape-copy-3" fill="#8f0754" fill-rule="evenodd" stroke="#8f0754" stroke-linecap="round" filter="url(#filter34)" d="M 1121.296875 715.1875 L 1119.90625 715.703125 L 1113.5 716.6875 L 1105.984375 718.78125 L 1081.96875 727.28125 L 1081.96875 727.265625 L 1072 730.421875 L 1070.296875 731.40625 L 1070.171875 732.1875 L 1068.5625 731.75 L 1066.5 733.140625 L 1064.34375 733.90625 L 1054.78125 735.75 L 1036.921875 740.671875 L 1019.671875 744.578125 L 1016.015625 745.75 L 1014.140625 747.234375 L 1017.21875 752.859375 L 1022.28125 759.015625 L 1061.8125 802.671875 L 1074.453125 815.78125 L 1076.109375 818.328125 L 1076.25 819.390625 L 1075.734375 821.484375 L 1071.65625 830.515625 L 1064.625 849.359375 L 1062.40625 854.1875 L 1057.171875 863.28125 L 1056.625 863.4375 L 1055.515625 862.859375 L 1051.109375 859.09375 L 1018.03125 825.921875 L 993.140625 800.328125 L 978.859375 785 L 976.5 780.203125 L 971.890625 773.953125 L 965.65625 766.921875 L 942.09375 738.265625 L 937.890625 734 L 936.421875 733.296875 L 936.203125 732.328125 L 934.90625 730.515625 L 923.671875 717.65625 L 921.109375 713.484375 L 911.296875 700.984375 L 896.703125 683.953125 L 876.0625 658.171875 L 849.015625 626.625 L 842.328125 618.15625 L 839.625 613.90625 L 840.359375 611.703125 L 841.765625 609.453125 L 844.203125 606.765625 L 844.890625 606.5625 L 847.4375 608.609375 L 851.796875 611.25 L 902.265625 640.171875 L 910.109375 644.171875 L 915.984375 648.171875 L 927.1875 654.109375 L 943.734375 664.09375 L 950.40625 667.5 L 950.40625 667.484375 L 961.078125 674.21875 L 977.5 682.421875 L 980.3125 683.40625 L 982.375 683.515625 L 984.25 679.78125 L 992.03125 660.3125 L 997.4375 641.0625 L 1005.53125 618.078125 L 1014.390625 590.546875 L 1015.703125 585.875 L 1015.375 584.328125 L 1012.265625 582 L 1002.953125 577.921875 L 981.328125 570.703125 L 981.328125 570.6875 L 959.15625 562.140625 L 938.921875 554.96875 L 927.015625 550.203125 L 893.296875 539 L 893.296875 538.984375 L 886.9375 536.4375 L 886.078125 535.6875 L 885.96875 535.21875 L 886.4375 534.640625 L 888.90625 534.21875 L 906.328125 534.578125 L 920.015625 534.25 L 931.796875 533.21875 L 938.8125 531.90625 L 945.546875 528.875 L 975.78125 519.75 L 988.359375 514.890625 L 1003.640625 507.109375 L 1013.46875 501.1875 L 1023.65625 494.453125 L 1025.625 493.6875 L 1028.484375 494.75 L 1052.046875 509.5 L 1075.1875 525.875 L 1079.75 529.5625 L 1087.140625 537.015625 L 1112.703125 569.71875 L 1120.859375 582.1875 L 1125.875 590.703125 L 1131.609375 601.9375 L 1134.28125 609.109375 L 1136.859375 618.6875 L 1138.265625 626.40625 L 1138.8125 635.4375 L 1138.625 649.921875 L 1137.75 664.734375 L 1135.546875 674.875 L 1130.15625 692.890625 L 1130.171875 692.890625 L 1126.109375 704.828125 L 1122.921875 713.03125 Z"/>
    <filter id="filter35" x="0" y="0" width="1255" height="1085" filterUnits="userSpaceOnUse" primitiveUnits="userSpaceOnUse" color-interpolation-filters="sRGB">
        <feFlood flood-color="#000000" flood-opacity="0.297648"/>
        <feComposite in2="SourceGraphic" operator="out"/>
        <feGaussianBlur stdDeviation="37"/>
        <feOffset dx="0" dy="-8"/>
        <feComposite in2="SourceGraphic" operator="atop"/>
    </filter>
    <path id="path15" fill="#8f0754" fill-rule="evenodd" stroke="#8f0754" stroke-linecap="round" filter="url(#filter35)" d="M 281.203125 171.390625 L 362.859375 290.625 L 322.6875 299.765625 L 280.75 305.5625 Z"/>
    <filter id="filter36" x="0" y="0" width="1255" height="1085" filterUnits="userSpaceOnUse" primitiveUnits="userSpaceOnUse" color-interpolation-filters="sRGB">
        <feFlood flood-color="#000000" flood-opacity="0.297648"/>
        <feComposite in2="SourceGraphic" operator="out"/>
        <feGaussianBlur stdDeviation="37"/>
        <feOffset dx="0" dy="-8"/>
        <feComposite in2="SourceGraphic" operator="atop"/>
    </filter>
    <path id="path16" fill="#8f0754" fill-rule="evenodd" stroke="#8f0754" stroke-linecap="round" filter="url(#filter36)" d="M 29.859375 15.1875 L 55.640625 19.03125 L 55.640625 19.015625 L 69.40625 21.75 L 93.984375 27.765625 L 120.390625 32.640625 L 153.375 43.484375 L 184.953125 54.859375 L 189.515625 56.96875 L 191.46875 58.53125 L 202.140625 71.65625 L 226.828125 98.71875 L 244.5 120.140625 L 250.671875 128.421875 L 256.5 135.09375 L 262.8125 144.671875 L 269.046875 151.578125 L 272.6875 156.234375 L 277.9375 164.40625 L 280.359375 169.1875 L 280.046875 169.453125 L 277.265625 169.734375 L 253.796875 169.265625 L 196.625 166.046875 L 108.03125 162.03125 L 44.015625 160.34375 L 36.75 139.515625 L 27.5 111.109375 L 22.1875 88.078125 L 14.546875 47.578125 L 14.5625 47.578125 L 12.15625 30.75 L 11.65625 24.40625 L 11.875 21.859375 L 12.96875 18.90625 L 14.46875 16.859375 L 16.53125 15.546875 L 19.578125 14.6875 L 23.625 14.578125 Z"/>
    <linearGradient id="linearGradient15" x1="382.624877" y1="1055.846506" x2="382.624877" y2="697.471335" gradientUnits="userSpaceOnUse">
        <stop offset="0" stop-color="#49062c" stop-opacity="1"/>
        <stop offset="1" stop-color="#8f0754" stop-opacity="1"/>
    </linearGradient>
    <linearGradient id="linearGradient16" x1="381.038327" y1="1055.993837" x2="381.038327" y2="697.669704" gradientUnits="userSpaceOnUse">
        <stop offset="0" stop-color="#49062c" stop-opacity="1"/>
        <stop offset="1" stop-color="#8f0754" stop-opacity="1"/>
    </linearGradient>
    <filter id="filter37" x="0" y="0" width="1255" height="1085" filterUnits="userSpaceOnUse" primitiveUnits="userSpaceOnUse" color-interpolation-filters="sRGB">
        <feFlood flood-color="#000000" flood-opacity="0.297648"/>
        <feComposite in2="SourceGraphic" operator="out"/>
        <feGaussianBlur stdDeviation="37"/>
        <feOffset dx="0" dy="-8"/>
        <feComposite in2="SourceGraphic" operator="atop"/>
    </filter>
    <path id="path17" fill="url(#linearGradient15)" fill-rule="evenodd" stroke="url(#linearGradient16)" stroke-linecap="round" filter="url(#filter37)" d="M 500.78125 699.09375 L 518.46875 707.140625 L 540.28125 716.109375 L 538.046875 716.453125 L 535.4375 717.59375 L 534.265625 718.796875 L 533.875 720.78125 L 533.484375 733.078125 L 533.96875 780.84375 L 533.78125 793.78125 L 532.359375 808.25 L 528.421875 827.46875 L 523.640625 841.71875 L 516.09375 857.515625 L 506.890625 872.8125 L 491.921875 894.34375 L 484.234375 903.3125 L 471.859375 916.609375 L 456.828125 931.34375 L 446.640625 940.265625 L 431.09375 952.828125 L 396.1875 978.75 L 389.15625 983.703125 L 375.484375 992.4375 L 375.71875 991.375 L 390.46875 943.03125 L 392.78125 940.703125 L 408.671875 932.8125 L 410.359375 931.5625 L 410.578125 930.390625 L 408.390625 927.953125 L 400.078125 921.515625 L 389.015625 911.546875 L 373.265625 895.640625 L 356.53125 877.765625 L 354.5625 876.140625 L 352.859375 876.140625 L 350.859375 878.5625 L 345.59375 887.875 L 296.546875 982.28125 L 282.4375 1011.796875 L 263.96875 1054.796875 L 257.546875 1042.0625 L 246.265625 1016.40625 L 240.296875 1000.28125 L 232.140625 974.796875 L 221.234375 949.046875 L 220.96875 947.90625 L 221.421875 947.046875 L 226.109375 942.71875 L 315.53125 873.65625 L 339.15625 853.703125 L 366.375 827.84375 L 495.859375 698.765625 L 497.59375 698.1875 Z"/>
    <filter id="filter38" x="0" y="0" width="1255" height="1085" filterUnits="userSpaceOnUse" primitiveUnits="userSpaceOnUse" color-interpolation-filters="sRGB">
        <feFlood flood-color="#000000" flood-opacity="0.297648"/>
        <feComposite in2="SourceGraphic" operator="out"/>
        <feGaussianBlur stdDeviation="37"/>
        <feOffset dx="0" dy="-8"/>
        <feComposite in2="SourceGraphic" operator="atop"/>
    </filter>
    <path id="path18" fill="#8f0754" fill-rule="evenodd" stroke="#8f0754" stroke-width="2" stroke-linecap="round" filter="url(#filter38)" d="M 301.046875 554.515625 L 280.84375 561.671875 L 258.6875 570.203125 L 237.015625 577.453125 L 227.640625 581.5625 L 224.328125 584.03125 L 223.9375 585.890625 L 225.296875 590.6875 L 234.140625 618.21875 L 242.21875 641.15625 L 242.203125 641.15625 L 247.640625 660.484375 L 255.453125 679.984375 L 257.484375 684.03125 L 259.9375 683.890625 L 262.84375 682.875 L 279.3125 674.65625 L 289.96875 667.9375 L 296.640625 664.53125 L 313.171875 654.578125 L 324.421875 648.609375 L 330.34375 644.59375 L 338.109375 640.609375 L 388.578125 611.6875 L 393 609.03125 L 395.359375 607.125 L 395.671875 607.203125 L 398 609.796875 L 399.3125 611.875 L 399.96875 613.859375 L 397.4375 617.84375 L 390.75 626.296875 L 363.703125 657.84375 L 343.0625 683.625 L 328.484375 700.65625 L 318.609375 713.1875 L 316.0625 717.390625 L 304.859375 730.203125 L 303.5 732.109375 L 303.296875 732.9375 L 301.96875 733.578125 L 297.6875 737.921875 L 274.125 766.59375 L 267.875 773.640625 L 263.203125 779.953125 L 260.890625 784.65625 L 246.640625 799.984375 L 221.765625 825.578125 L 188.6875 858.75 L 184.328125 862.453125 L 183.46875 862.90625 L 183.3125 862.859375 L 178.21875 854.015625 L 175.96875 849.140625 L 168.953125 830.328125 L 164.890625 821.3125 L 164.40625 819.375 L 164.515625 818.484375 L 166.078125 816.09375 L 178.703125 803.015625 L 218.25 759.34375 L 223.34375 753.140625 L 226.65625 747.09375 L 224.390625 745.3125 L 220.609375 744.09375 L 203.34375 740.203125 L 203.34375 740.1875 L 185.5 735.265625 L 175.84375 733.390625 L 173.890625 732.6875 L 171.65625 731.21875 L 170.390625 731.5625 L 170.328125 731.09375 L 168.359375 729.953125 L 158.328125 726.796875 L 134.3125 718.3125 L 126.734375 716.1875 L 120.40625 715.234375 L 119.171875 714.78125 L 117.671875 712.78125 L 114.515625 704.65625 L 110.46875 692.703125 L 110.453125 692.703125 L 105.09375 674.796875 L 105.109375 674.796875 L 102.890625 664.5625 L 102.03125 649.890625 L 101.84375 635.5 L 102.375 626.4375 L 103.78125 618.828125 L 106.34375 609.25 L 108.984375 602.15625 L 114.671875 590.984375 L 119.703125 582.484375 L 127.875 569.984375 L 127.859375 569.984375 L 153.34375 537.359375 L 160.65625 529.984375 L 165.28125 526.265625 L 188.375 509.921875 L 211.875 495.203125 L 214.5 494.21875 L 216.359375 494.9375 L 226.421875 501.609375 L 236.28125 507.546875 L 251.59375 515.359375 L 264.203125 520.234375 L 294.390625 529.328125 L 301.203125 532.390625 L 308.265625 533.703125 L 320.09375 534.75 L 333.8125 535.078125 L 351.25 534.71875 L 353.4375 535.09375 L 353.640625 535.328125 L 353.625 535.40625 L 352.9375 536.015625 L 346.734375 538.5 L 312.96875 549.734375 Z"/>
    <linearGradient id="linearGradient17" x1="619.543423" y1="433.634355" x2="619.543423" y2="85.740534" gradientUnits="userSpaceOnUse">
        <stop offset="0" stop-color="#91020d" stop-opacity="1"/>
        <stop offset="1" stop-color="#cd2e3a" stop-opacity="1"/>
    </linearGradient>
    <linearGradient id="linearGradient18" x1="620.083431" y1="433.777377" x2="620.083431" y2="85.933105" gradientUnits="userSpaceOnUse">
        <stop offset="0" stop-color="#5f0209" stop-opacity="1"/>
        <stop offset="1" stop-color="#cd2e3a" stop-opacity="1"/>
    </linearGradient>
    <filter id="filter39" x="0" y="0" width="1255" height="1085" filterUnits="userSpaceOnUse" primitiveUnits="userSpaceOnUse" color-interpolation-filters="sRGB">
        <feFlood flood-color="#000000" flood-opacity="0.297648"/>
        <feComposite in2="SourceGraphic" operator="out"/>
        <feGaussianBlur stdDeviation="37"/>
        <feOffset dx="0" dy="-8"/>
        <feComposite in2="SourceGraphic" operator="atop"/>
    </filter>
    <path id="Shape-copy-2" fill="url(#linearGradient17)" fill-rule="evenodd" stroke="url(#linearGradient18)" stroke-linecap="round" filter="url(#filter39)" d="M 621.421875 87.09375 L 623.078125 89.390625 L 624.859375 93.203125 L 626.109375 97.53125 L 626.125 97.53125 L 632.4375 132.796875 L 639 160.03125 L 644.875 193.34375 L 654.578125 228.015625 L 658.015625 250.09375 L 666.4375 287 L 667.234375 293.28125 L 668.078125 306.21875 L 668.546875 333.859375 L 666.53125 417 L 666.828125 419.171875 L 667.875 421.03125 L 673.0625 421.609375 L 674.03125 421.96875 L 671.96875 425.859375 L 668.375 431.125 L 667.03125 432.25 L 665.34375 432.71875 L 651.703125 433.265625 L 620.078125 433 L 588.75 433.265625 L 578.109375 433.0625 L 574.40625 432.65625 L 572.890625 432.140625 L 571.90625 431.28125 L 569.109375 427.34375 L 566.125 421.96875 L 567.09375 421.609375 L 572.265625 421.03125 L 573.3125 419.171875 L 573.609375 417 L 571.640625 340.296875 L 571.875 311.109375 L 572.921875 293.328125 L 574.234375 284.1875 L 574.21875 284.1875 L 582.453125 248.46875 L 585.5625 228.078125 L 595.28125 193.34375 L 601.15625 160.03125 L 607.71875 132.796875 L 614.03125 97.53125 L 614.046875 97.53125 L 615.296875 93.203125 L 617.078125 89.390625 L 618.734375 87.09375 L 620.21875 86.484375 Z"/>
    <linearGradient id="linearGradient19" x1="296.888292" y1="546.876734" x2="936.956885" y2="546.876734" gradientUnits="userSpaceOnUse">
        <stop offset="0" stop-color="#3735a5" stop-opacity="1"/>
        <stop offset="0.247103" stop-color="#4c1635" stop-opacity="1"/>
        <stop offset="0.497764" stop-color="#3635a7" stop-opacity="1"/>
        <stop offset="0.749255" stop-color="#4c1635" stop-opacity="1"/>
        <stop offset="1" stop-color="#3833a2" stop-opacity="1"/>
    </linearGradient>
    <linearGradient id="linearGradient20" x1="620.083407" y1="697.712895" x2="620.083407" y2="396.331341" gradientUnits="userSpaceOnUse">
        <stop offset="0" stop-color="#3735a5" stop-opacity="1"/>
        <stop offset="0.247103" stop-color="#4c1635" stop-opacity="1"/>
        <stop offset="0.497764" stop-color="#3635a7" stop-opacity="1"/>
        <stop offset="0.749255" stop-color="#4c1635" stop-opacity="1"/>
        <stop offset="1" stop-color="#3833a2" stop-opacity="1"/>
    </linearGradient>
    <filter id="filter40" x="0" y="0" width="1255" height="1085" filterUnits="userSpaceOnUse" primitiveUnits="userSpaceOnUse" color-interpolation-filters="sRGB">
        <feFlood flood-color="#000000" flood-opacity="0.297648"/>
        <feComposite in2="SourceGraphic" operator="out"/>
        <feGaussianBlur stdDeviation="37"/>
        <feOffset dx="0" dy="-8"/>
        <feComposite in2="SourceGraphic" operator="atop"/>
    </filter>
    <path id="Shape-copy" fill="url(#linearGradient19)" fill-rule="evenodd" stroke="url(#linearGradient20)" stroke-linecap="round" filter="url(#filter40)" d="M 839.359375 612.484375 L 832.34375 620.984375 L 816.609375 638.171875 L 797.3125 656.296875 L 769.671875 678.140625 L 746.25 695.453125 L 743.5 697.09375 L 740.03125 694.109375 L 638.125 596.078125 L 625.9375 585.15625 L 622.453125 582.4375 L 620.109375 581.40625 L 618.53125 581.90625 L 616.15625 583.59375 L 603.546875 594.640625 L 518.859375 676.421875 L 496.625 697.078125 L 491.3125 693.640625 L 479.09375 684.703125 L 442.828125 656.296875 L 426.1875 640.828125 L 410.34375 623.90625 L 396.953125 607.46875 L 389.78125 597.578125 L 381.609375 585.09375 L 372.015625 568.640625 L 353.890625 534.640625 L 375.84375 533.125 L 389 531.25 L 401.71875 528.375 L 413.765625 524.953125 L 421.265625 522.359375 L 424.34375 520.8125 L 425.890625 519.421875 L 413.609375 493.625 L 381.265625 430.5 L 300.59375 430.5 L 300.65625 401.640625 L 300.921875 397.953125 L 301.28125 396.984375 L 301.921875 396.890625 L 339.953125 403.53125 L 374.21875 410.015625 L 374.21875 410 L 393.234375 414.453125 L 418.75 421.234375 L 433.84375 425.484375 L 437.53125 427.0625 L 438.84375 428.390625 L 439.734375 430.609375 L 456.578125 491.203125 L 460 502.1875 L 461.546875 505.390625 L 465.125 505.921875 L 482.75 504.1875 L 569.140625 493.671875 L 596.390625 490.09375 L 608.625 487.96875 L 574.09375 434.03125 L 577.3125 433.890625 L 620.0625 434.8125 L 656.40625 433.9375 L 666.0625 434.03125 L 659.125 445.3125 L 635.703125 481.015625 L 631.625 488.046875 L 659.265625 492.1875 L 757.390625 504.1875 L 771.296875 505.703125 L 777.609375 505.765625 L 779.1875 504.671875 L 781.90625 496.84375 L 800.40625 430.65625 L 801.3125 428.390625 L 802.625 427.0625 L 806.3125 425.484375 L 821.40625 421.234375 L 846.953125 414.453125 L 865.9375 410 L 890.140625 405.296875 L 938.21875 396.875 L 938.796875 396.875 L 938.953125 397.03125 L 939.5 401.609375 L 939.5625 430.5 L 858.875 430.5 L 826.546875 493.609375 L 814.234375 519.40625 L 815.796875 520.8125 L 818.890625 522.359375 L 826.390625 524.953125 L 838.4375 528.375 L 851.140625 531.25 L 864.296875 533.125 L 886.265625 534.640625 L 868.140625 568.65625 L 861.03125 581.140625 L 847.015625 602.296875 Z"/>
</svg>
